<?xml version="1.0" encoding="UTF-8"?>
<svg version="1.1" xmlns="http://www.w3.org/2000/svg" width="500" height="500">
<path d="M0 0 C2.74707031 1.34423828 2.74707031 1.34423828 5.578125 3.0703125 C7.17539429 4.03239624 7.17539429 4.03239624 8.80493164 5.01391602 C9.64557663 5.52911301 9.64557663 5.52911301 10.50320435 6.05471802 C12.89748942 7.52172429 15.30442919 8.96736716 17.71083069 10.41438293 C18.95928618 11.16529233 20.20711413 11.917246 21.45433044 12.67021179 C27.60995772 16.38296208 33.82858288 19.98292368 40.0625 23.5625 C41.12807129 24.17552979 42.19364258 24.78855957 43.29150391 25.42016602 C45.44645397 26.65957935 47.60172687 27.89843153 49.75732422 29.13671875 C68.53488062 39.92653282 87.26176881 50.80118566 105.95898438 61.72949219 C108.93065505 63.46606836 111.90269374 65.20201192 114.875 66.9375 C115.86218018 67.51395264 116.84936035 68.09040527 117.86645508 68.68432617 C125.16611392 72.9420168 132.48704158 77.16189825 139.8125 81.375 C149.87362029 87.163868 159.87006608 93.05532721 169.84545898 98.99047852 C180.99370783 105.6131282 192.22451216 112.08783508 203.47412109 118.53637695 C204.30766113 119.01937256 205.14120117 119.50236816 206 120 C207.29704251 120.48064392 207.29704251 120.48064392 208.6202879 120.97099781 C211 123 211 123 211.45722449 124.9277395 C211.63527178 127.60606764 211.64149998 130.24353012 211.60127258 132.92765808 C211.60554471 133.95927655 211.60981683 134.99089502 211.61421841 136.05377465 C211.62248619 139.52741427 211.59489958 142.99985942 211.56762695 146.47338867 C211.56621731 148.95655794 211.56700682 151.43972929 211.56983948 153.92289734 C211.57097985 159.27761014 211.55675433 164.63194766 211.52865028 169.98656273 C211.48804314 177.72840285 211.47499597 185.47009561 211.46871033 193.21203069 C211.45776272 205.77221522 211.424476 218.33223755 211.37719727 230.89233398 C211.33131366 243.09447416 211.29591593 255.29657029 211.2746582 267.4987793 C211.27334459 268.25071401 211.27203097 269.00264873 211.27067754 269.77736934 C211.26415243 273.54954312 211.25783388 277.32171721 211.25161803 281.0938915 C211.19977052 312.39604563 211.11132145 343.6979982 211 375 C207.53417223 377.00018271 204.06826057 379.00021998 200.60227966 381.00013733 C198.86123559 382.00478008 197.12025307 383.00952949 195.37927246 384.01428223 C188.51085325 387.9773491 181.63912772 391.93456507 174.76362705 395.8853302 C163.86812197 402.14629964 153.04391948 408.52067237 142.24633789 414.94897461 C133.63199337 420.0643031 124.95082397 425.0510901 116.24029541 429.99972534 C107.60449978 434.90842243 99.03307164 439.91393169 90.5 445 C81.38696435 450.43175117 72.22370187 455.75962396 63 461 C53.69599735 466.28705593 44.44893711 471.65680905 35.25 477.125 C34.14833496 477.77782959 33.04666992 478.43065918 31.91162109 479.10327148 C26.87896622 482.08804636 21.8536595 485.08336631 16.85229492 488.12023926 C14.11594098 489.77777419 11.36923403 491.41805441 8.625 493.0625 C7.62629883 493.67689941 6.62759766 494.29129883 5.59863281 494.92431641 C4.67147461 495.47651855 3.74431641 496.0287207 2.7890625 496.59765625 C1.57790771 497.33254272 1.57790771 497.33254272 0.34228516 498.08227539 C-2.64365669 499.25218944 -3.96933674 498.99895468 -7 498 C-8.95870085 497.03374458 -10.87973692 495.98944491 -12.76953125 494.89453125 C-13.89327148 494.24790527 -15.01701172 493.6012793 -16.17480469 492.93505859 C-17.38747338 492.22771662 -18.60003584 491.52019251 -19.8125 490.8125 C-21.07291148 490.083575 -22.33365829 489.35522954 -23.59472656 488.62744141 C-26.79626755 486.77725475 -29.99274948 484.91853223 -33.18731689 483.05633545 C-35.90324407 481.47363732 -38.62180467 479.89547401 -41.33984375 478.31640625 C-46.25549191 475.45642204 -51.16542953 472.58678441 -56.07324219 469.71337891 C-61.00508069 466.82618816 -65.9396018 463.94360074 -70.875 461.0625 C-71.86234131 460.4859668 -72.84968262 459.90943359 -73.86694336 459.31542969 C-81.16640178 455.05775742 -88.48713411 450.83789736 -95.8125 446.625 C-104.81462349 441.44710969 -113.76492833 436.18870611 -122.6875 430.875 C-130.9042381 425.98264483 -139.15744848 421.17461793 -147.5 416.5 C-156.98894344 411.18301933 -166.35346713 405.67429416 -175.69824219 400.10839844 C-190.03857795 391.57670198 -204.51232789 383.27866978 -219 375 C-219 291.84 -219 208.68 -219 123 C-193 108 -193 108 -180.0625 100.5625 C-171.2080337 95.46524554 -162.4038958 90.28873016 -153.625 85.0625 C-143.23815537 78.88017668 -132.77983848 72.83934117 -122.27441406 66.86181641 C-113.80072729 62.03903836 -105.36711212 57.15147741 -96.95214844 52.22705078 C-89.50592296 47.87164117 -82.03820661 43.55458801 -74.5625 39.25 C-66.82563392 34.79338416 -59.10064028 30.31931092 -51.4128418 25.77856445 C-47.33479561 23.37063671 -43.2489201 20.97675714 -39.15625 18.59375 C-37.61130859 17.69390381 -37.61130859 17.69390381 -36.03515625 16.77587891 C-33.94515223 15.56004684 -31.85402297 14.34614677 -29.76171875 13.13427734 C-25.24503231 10.51138129 -20.75129139 7.87352434 -16.34375 5.0703125 C-15.66199707 4.64113525 -14.98024414 4.21195801 -14.27783203 3.76977539 C-13.05588327 2.99449484 -11.84238005 2.20564613 -10.64013672 1.40014648 C-6.63513294 -1.1297434 -4.5235907 -1.11394557 0 0 Z " fill="#FE5757" transform="translate(254,1)"/>
<path d="M0 0 C13.52974029 11.69711661 23.07370937 27.13490811 25.5 45.0625 C26.27022384 56.45171159 24.8466271 66.20952972 21.5 77.0625 C21.13648438 78.36380859 21.13648438 78.36380859 20.765625 79.69140625 C18.00032837 88.0296221 12.14263881 94.96866813 7.01757812 101.98339844 C-0.71942307 112.58318966 -7.27670269 122.16931076 -10.5 135.0625 C-16.77 135.0625 -23.04 135.0625 -29.5 135.0625 C-29.5 120.36782739 -21.22968529 107.46482729 -12.65234375 95.95703125 C-0.85783601 80.09545188 7.56539753 65.76395575 5.5 45.0625 C3.15837703 33.39856671 -3.11610653 21.42521619 -13.01171875 14.5546875 C-26.54604999 6.43833815 -39.40131765 2.73532175 -55.07421875 5.75 C-67.69300194 9.33403309 -78.63981369 16.04875769 -85.546875 27.4375 C-92.5954579 40.50867378 -94.96730915 54.12713045 -91 68.75 C-88.59114204 75.63364618 -84.77596382 81.22066698 -80.5 87.0625 C-78.44892071 89.90998685 -76.40938172 92.76556347 -74.375 95.625 C-73.85550781 96.35493164 -73.33601563 97.08486328 -72.80078125 97.83691406 C-64.84048879 109.13096072 -57.5 121.0041424 -57.5 135.0625 C-63.77 135.0625 -70.04 135.0625 -76.5 135.0625 C-76.974375 133.20625 -77.44875 131.35 -77.9375 129.4375 C-81.41102847 118.14546398 -88.65580445 109.1224365 -95.58984375 99.70703125 C-107.52907628 83.17766433 -114.65082466 65.77433278 -112.5 45.0625 C-109.28671912 26.18447484 -99.74983476 9.95317103 -84.640625 -1.80078125 C-58.26633404 -19.74448418 -25.47784443 -19.50830355 0 0 Z " fill="#212F4E" transform="translate(293.5,164.9375)"/>
<path d="M0 0 C20.46 0 40.92 0 62 0 C62 12.26763785 61.14842874 19.53043955 52.92578125 28.24609375 C46.12385487 34.44095165 38.87310625 37.46211836 29.65625 37.25390625 C19.56726291 36.28951778 12.05718022 32.00192168 5.61328125 24.2578125 C-0.05254196 16.32840375 0 10.06969495 0 0 Z " fill="#212F4D" transform="translate(219,313)"/>
<path d="M0 0 C0.99 0.66 1.98 1.32 3 2 C3.66491326 8.09503819 3.66491326 8.09503819 1.77734375 10.6640625 C-0.43902559 12.32999286 -2.0774615 12.56358537 -4.8125 12.9375 C-10.74068685 13.99887843 -14.29093136 16.00608659 -18.25 20.625 C-20.19439532 24.37490526 -20.80142526 27.57159801 -21.3125 31.73046875 C-22.20050422 34.66189176 -23.39082123 35.47919375 -26 37 C-28.5625 37.375 -28.5625 37.375 -31 37 C-33.17683586 35.36474407 -33.9109007 34.4026736 -34.50390625 31.72265625 C-34.69988763 22.82510157 -31.95760657 15.61305923 -26.13671875 8.828125 C-18.62588913 1.78390003 -10.32802074 -1.45608161 0 0 Z " fill="#222E4D" transform="translate(253,188)"/>
<path d="M0 0 C0 0.66 0 1.32 0 2 C-3.50156814 5.25727269 -6.40288344 7.50904328 -11 9 C-11.99 9.33 -12.98 9.66 -14 10 C-14.00932647 41.52573927 -13.9881338 73.05127163 -13.92420971 104.57694171 C-13.91669347 108.29706227 -13.90943803 112.0171833 -13.90234375 115.73730469 C-13.900927 116.47792791 -13.89951025 117.21855113 -13.89805056 117.98161748 C-13.87571928 129.98081198 -13.87452413 141.97992052 -13.88111137 153.97913 C-13.88739883 166.28732296 -13.87103924 178.59533483 -13.83356392 190.90347314 C-13.81114751 198.50111607 -13.80649157 206.09834682 -13.82440336 213.69600347 C-13.83623763 219.51748644 -13.81659469 225.33859288 -13.78504753 231.16001129 C-13.77705606 233.55135415 -13.77937988 235.94275631 -13.79260826 238.33407593 C-13.80910888 241.5914924 -13.78901434 244.84666671 -13.75949097 248.10394287 C-13.77307707 249.05724668 -13.78666317 250.01055049 -13.80066097 250.9927423 C-13.85302129 255.64649254 -13.85302129 255.64649254 -11.61368012 259.49573946 C-9.80508456 260.78111667 -9.80508456 260.78111667 -7 262 C-6.34 261.34 -5.68 260.68 -5 260 C-5 261.65 -5 263.3 -5 265 C-7.01797888 264.38991336 -9.01548229 263.71143088 -11 263 C-11.88091907 262.68526576 -12.76183813 262.37053152 -13.66945171 262.04625988 C-16.39165427 259.65612109 -16.38018661 259.16210516 -16.61523914 255.69527912 C-16.63635064 253.82107984 -16.62936009 251.94644964 -16.60127258 250.07234192 C-16.60554471 249.04072345 -16.60981683 248.00910498 -16.61421841 246.94622535 C-16.62248619 243.47258573 -16.59489958 240.00014058 -16.56762695 236.52661133 C-16.56621731 234.04344206 -16.56700682 231.56027071 -16.56983948 229.07710266 C-16.57097985 223.72238986 -16.55675433 218.36805234 -16.52865028 213.01343727 C-16.48804314 205.27159715 -16.47499597 197.52990439 -16.46871033 189.78796931 C-16.45776272 177.22778478 -16.424476 164.66776245 -16.37719727 152.10766602 C-16.33131366 139.90552584 -16.29591593 127.70342971 -16.2746582 115.5012207 C-16.27334459 114.74928599 -16.27203097 113.99735127 -16.27067754 113.22263066 C-16.26415243 109.45045688 -16.25783388 105.67828279 -16.25161803 101.9061085 C-16.19977052 70.60395437 -16.11132145 39.3020018 -16 8 C-13.71125827 6.66141476 -11.41930344 5.32898986 -9.125 4 C-8.47402344 3.6184375 -7.82304688 3.236875 -7.15234375 2.84375 C-2.2265625 0 -2.2265625 0 0 0 Z " fill="#EB7776" transform="translate(51,116)"/>
<path d="M0 0 C0.99 0.33 1.98 0.66 3 1 C3 84.16 3 167.32 3 253 C-3.93 256.96 -10.86 260.92 -18 265 C-18.495 263.515 -18.495 263.515 -19 262 C-16.35261084 260.5393715 -15.10551666 260 -12 260 C-12 259.34 -12 258.68 -12 258 C-11.01 258 -10.02 258 -9 258 C-9 257.34 -9 256.68 -9 256 C-7.68 256 -6.36 256 -5 256 C-5 255.34 -5 254.68 -5 254 C-4.01 254 -3.02 254 -2 254 C-2 253.34 -2 252.68 -2 252 C-0.68 252 0.64 252 2 252 C1.89533431 220.32991526 1.7856361 188.65985301 1.66888306 156.98981069 C1.65511299 153.25337979 1.64138597 149.51694873 1.62768555 145.78051758 C1.62359309 144.66470336 1.62359309 144.66470336 1.61941796 143.52634744 C1.57530744 131.47154415 1.53468603 119.41673149 1.49534739 107.3619118 C1.45492402 94.99841726 1.41076664 82.63494016 1.36312145 70.27147132 C1.33382512 62.63864954 1.30746358 55.00582909 1.28482103 47.37298463 C1.26716585 41.52639945 1.24432296 35.67984189 1.21950912 29.83328247 C1.21013109 27.4302258 1.20245853 25.0271618 1.19658089 22.62409401 C1.18833252 19.353948 1.17405934 16.0838832 1.15821838 12.81376648 C1.15724028 11.85365888 1.15626217 10.89355128 1.15525442 9.90434951 C1.14977998 9.03101086 1.14430554 8.15767222 1.1386652 7.25786877 C1.13600716 6.50260503 1.13334911 5.74734129 1.13061053 4.96919078 C1.06913275 2.78614974 1.06913275 2.78614974 0 0 Z " fill="#DD7F7F" transform="translate(462,123)"/>
<path d="M0 0 C21.12 0 42.24 0 64 0 C64 8.30373499 63.74282044 13.58048111 61 21 C60.65775391 22.02673828 60.65775391 22.02673828 60.30859375 23.07421875 C58.72237865 27.39778791 56.9998825 28.90006169 53 31 C50.6964236 33.55038816 49.60375249 35.61898604 49 39 C40.96428571 38.0625 40.96428571 38.0625 37 37 C37.61746094 36.8040625 38.23492187 36.608125 38.87109375 36.40625 C46.97763554 33.54366599 53.92602326 29.02467708 58.4375 21.5 C60.78303066 15.24905998 60.78303066 15.24905998 62 1 C41.54 1 21.08 1 0 1 C0 0.67 0 0.34 0 0 Z " fill="#B95360" transform="translate(219,312)"/>
<path d="M0 0 C2 3 2 3 3 6.125 C3.6686673 9.12511062 3.6686673 9.12511062 6 10 C5.67 11.98 5.34 13.96 5 16 C-0.28 16 -5.56 16 -11 16 C-11 9 -11 9 -10 7 C-9.2575 6.731875 -8.515 6.46375 -7.75 6.1875 C-4.37865489 4.73169188 -2.46785493 2.67938535 0 0 Z " fill="#1E304F" transform="translate(230,283)"/>
<path d="M0 0 C1.11696762 0.00222061 2.23393524 0.00444122 3.38475037 0.00672913 C4.64598221 0.00680466 5.90721405 0.00688019 7.20666504 0.00695801 C8.59341979 0.01206542 9.98017414 0.01728142 11.3669281 0.02259827 C12.77797394 0.0244625 14.18902042 0.02588638 15.60006714 0.02688599 C19.3204272 0.03071072 23.04074845 0.04054062 26.76109314 0.05158997 C30.55482966 0.06180504 34.34857243 0.06638381 38.14231873 0.07142639 C45.59090416 0.08216294 53.03945758 0.09923882 60.48802185 0.12025452 C60.48802185 0.45025452 60.48802185 0.78025452 60.48802185 1.12025452 C40.02802185 1.12025452 19.56802185 1.12025452 -1.51197815 1.12025452 C-0.42974695 15.18926011 0.90304031 22.48142476 10.48802185 32.12025452 C7.48802185 32.12025452 7.48802185 32.12025452 4.80052185 29.74525452 C2.48802185 27.12025452 2.48802185 27.12025452 2.48802185 25.12025452 C1.82802185 25.12025452 1.16802185 25.12025452 0.48802185 25.12025452 C-3.60149118 17.19682302 -4.26275122 9.96953055 -3.51197815 1.12025452 C-2.51197815 0.12025452 -2.51197815 0.12025452 0 0 Z " fill="#E65F67" transform="translate(220.51197814941406,310.87974548339844)"/>
<path d="M0 0 C0.6875 1.5625 0.6875 1.5625 1 4 C0.28288618 5.6949963 -0.44073659 7.38837703 -1.23046875 9.05078125 C-2.51378886 12.30142458 -2.69587056 15.53292436 -3 19 C-3.66 19 -4.32 19 -5 19 C-4.86149295 22.45866792 -4.71295273 25.91683275 -4.5625 29.375 C-4.52318359 30.35984375 -4.48386719 31.3446875 -4.44335938 32.359375 C-4.40146484 33.30039063 -4.35957031 34.24140625 -4.31640625 35.2109375 C-4.26141968 36.51490479 -4.26141968 36.51490479 -4.20532227 37.84521484 C-4.12598456 40.0483262 -4.12598456 40.0483262 -3 42 C-2.93003986 43.70702735 -2.91559846 45.41668003 -2.9375 47.125 C-2.94652344 48.03507812 -2.95554688 48.94515625 -2.96484375 49.8828125 C-2.97644531 50.58148438 -2.98804688 51.28015625 -3 52 C-9.7631683 39.38299694 -7.98220058 23.62793689 -4.16796875 10.40234375 C-2.9432345 6.83463962 -1.53169699 3.44522102 0 0 Z " fill="#633246" transform="translate(188,188)"/>
<path d="M0 0 C0.66 0.66 1.32 1.32 2 2 C-0.64 2 -3.28 2 -6 2 C-6 1.34 -6 0.68 -6 0 C-24.09754565 -0.30549446 -24.09754565 -0.30549446 -42 2 C-43.43593234 2.21887746 -44.87324941 2.42912566 -46.3125 2.625 C-47.199375 2.74875 -48.08625 2.8725 -49 3 C-35.29818319 -6.13454454 -15.05178582 -4.34607855 0 0 Z " fill="#4C2C43" transform="translate(272,153)"/>
<path d="M0 0 C0.66 0.33 1.32 0.66 2 1 C1.67 2.32 1.34 3.64 1 5 C-0.32 5 -1.64 5 -3 5 C-3 6.98 -3 8.96 -3 11 C-6 12 -6 12 -9 11 C-11.1591338 17.87581298 -12.35482211 23.78528371 -12 31 C-12.66 30.67 -13.32 30.34 -14 30 C-14.95396497 21.02566289 -13.07458336 14.47386336 -8 7 C-5.52064417 4.36957231 -2.93036416 2.11224219 0 0 Z " fill="#462C42" transform="translate(233,192)"/>
<path d="M0 0 C0.99 0.66 1.98 1.32 3 2 C3.66491326 8.09503819 3.66491326 8.09503819 1.77734375 10.6640625 C-0.43902559 12.32999286 -2.0774615 12.56358537 -4.8125 12.9375 C-9.53640028 13.75125216 -12.23679377 15.08351517 -16 18 C-16.66 18.33 -17.32 18.66 -18 19 C-17.25 14.25 -17.25 14.25 -15 12 C-12.875 12.375 -12.875 12.375 -11 13 C-11 12.34 -11 11.68 -11 11 C-9.93458984 10.92652344 -9.93458984 10.92652344 -8.84765625 10.8515625 C-7.46900391 10.73941406 -7.46900391 10.73941406 -6.0625 10.625 C-5.14597656 10.55539063 -4.22945312 10.48578125 -3.28515625 10.4140625 C-2.53105469 10.27742187 -1.77695313 10.14078125 -1 10 C-0.67 9.34 -0.34 8.68 0 8 C0.66 8 1.32 8 2 8 C1.65555119 5.52733235 1.65555119 5.52733235 1 3 C-2.42310494 1.28844753 -6.24203747 1.71343093 -10 2 C-11.68375165 2.62225605 -13.35767228 3.27544365 -15 4 C-15.99 3.67 -16.98 3.34 -18 3 C-12.08994881 -0.1520273 -6.67140297 -0.81799049 0 0 Z " fill="#4D2940" transform="translate(253,188)"/>
<path d="M0 0 C1.04449911 3.13349732 0.93423645 3.98968256 0 7 C-0.66 7 -1.32 7 -2 7 C-1.67 8.98 -1.34 10.96 -1 13 C-1.99 13.33 -2.98 13.66 -4 14 C-4.80563638 16.10584438 -4.80563638 16.10584438 -5.1875 18.5625 C-5.455625 20.026875 -5.72375 21.49125 -6 23 C-0.39 23 5.22 23 11 23 C11 21.02 11 19.04 11 17 C11.66 16.67 12.32 16.34 13 16 C12.67 18.64 12.34 21.28 12 24 C5.73 24 -0.54 24 -7 24 C-7 17.97207806 -6.77391087 15.56056268 -4.625 10.3125 C-4.18414062 9.21550781 -3.74328125 8.11851562 -3.2890625 6.98828125 C-2.26313087 4.6099852 -1.19555181 2.29612988 0 0 Z " fill="#472A41" transform="translate(271,276)"/>
<path d="M0 0 C0.99 0.33 1.98 0.66 3 1 C4.26750669 7.79663036 4.11139726 14.54298684 4.0625 21.4375 C4.05798828 22.64599609 4.05347656 23.85449219 4.04882812 25.09960938 C4.03710145 28.06645789 4.02068896 31.0332027 4 34 C2.68 34.66 1.36 35.32 0 36 C0.144375 35.29617187 0.28875 34.59234375 0.4375 33.8671875 C2.59210312 22.40589588 2.92806362 11.34624654 0 0 Z " fill="#3D2B3F" transform="translate(297,200)"/>
<path d="M0 0 C-1.45094013 3.38552696 -3.1216504 5.68132949 -6 8 C-7.99422795 8.36628677 -9.99453311 8.70131344 -12 9 C-12.474375 9.495 -12.94875 9.99 -13.4375 10.5 C-15.906266 12.87001536 -18.70123249 12.68879552 -22 13 C-19.86979193 10.71464143 -17.7462071 9.10448528 -15.05859375 7.51953125 C-14.31029297 7.07802734 -13.56199219 6.63652344 -12.79101562 6.18164062 C-12.01435547 5.72982422 -11.23769531 5.27800781 -10.4375 4.8125 C-9.65697266 4.34908203 -8.87644531 3.88566406 -8.07226562 3.40820312 C-2.25472892 0 -2.25472892 0 0 0 Z " fill="#F37F83" transform="translate(147,60)"/>
<path d="M0 0 C-6.27 3.63 -12.54 7.26 -19 11 C-19.33 10.01 -19.66 9.02 -20 8 C-19.030625 7.7525 -18.06125 7.505 -17.0625 7.25 C-15.5465625 6.63125 -15.5465625 6.63125 -14 6 C-13.86078125 5.35160156 -13.7215625 4.70320313 -13.578125 4.03515625 C-13 2 -13 2 -11.07421875 0.91796875 C-10.28660156 0.67691406 -9.49898438 0.43585938 -8.6875 0.1875 C-7.90761719 -0.06644531 -7.12773437 -0.32039063 -6.32421875 -0.58203125 C-4 -1 -4 -1 0 0 Z " fill="#F17276" transform="translate(295,475)"/>
<path d="M0 0 C1.24546405 2.49092811 0.7767578 3.41080733 0 6 C-0.99 6 -1.98 6 -3 6 C-3.04125 6.86625 -3.0825 7.7325 -3.125 8.625 C-4.24815896 12.95718457 -6.44376385 15.33989763 -10 18 C-10.66 18 -11.32 18 -12 18 C-10.5703053 13.91196673 -8.57586645 10.78329064 -6 7.3125 C-5.29875 6.35988281 -4.5975 5.40726563 -3.875 4.42578125 C-2 2 -2 2 0 0 Z " fill="#3C2E43" transform="translate(201,170)"/>
<path d="M0 0 C8.22492784 3.98121507 16.16219859 8.30287788 24 13 C23.67 13.66 23.34 14.32 23 15 C21.0625 14.6875 21.0625 14.6875 19 14 C18.67 13.01 18.34 12.02 18 11 C14.48809191 9.77030122 14.48809191 9.77030122 11 9 C11 8.34 11 7.68 11 7 C9.68 7 8.36 7 7 7 C7 6.34 7 5.68 7 5 C4.36 4.67 1.72 4.34 -1 4 C-0.67 2.68 -0.34 1.36 0 0 Z " fill="#EF8183" transform="translate(278,16)"/>
<path d="M0 0 C0.33 0 0.66 0 1 0 C1.08636719 1.05058594 1.17273438 2.10117187 1.26171875 3.18359375 C2.35975349 14.74809013 5.15424477 22.25758702 13 31 C9.63820226 29.55922954 7.40843732 27.75249979 5 25 C5 24.34 5 23.68 5 23 C4.34 23 3.68 23 3 23 C-1.16779266 15.07582769 -1.26481821 8.77123931 0 0 Z " fill="#D35A68" transform="translate(218,313)"/>
<path d="M0 0 C0.66 0.33 1.32 0.66 2 1 C1.01 1.33 0.02 1.66 -1 2 C-1.33 2.99 -1.66 3.98 -2 5 C-5.52689093 8.1950598 -9.50677675 10.46284468 -14 12 C-14.928125 12.37125 -15.85625 12.7425 -16.8125 13.125 C-17.534375 13.41375 -18.25625 13.7025 -19 14 C-13.8493091 8.33424001 -7.15385931 2.87692837 0 0 Z " fill="#3D2C40" transform="translate(221,156)"/>
<path d="M0 0 C0.33 0 0.66 0 1 0 C1.38790897 5.68933162 0.20135677 10.42281405 -1.265625 15.91015625 C-2.29591887 20.24506291 -2.71520069 24.56105909 -3 29 C-3.33 29 -3.66 29 -4 29 C-4.36511429 19.10134603 -4.55514999 9.11029998 0 0 Z " fill="#CE585F" transform="translate(204,198)"/>
<path d="M0 0 C2.0625 0.4375 2.0625 0.4375 4 1 C2.42138562 3.2534419 0.83735779 5.50272943 -0.75 7.75 C-1.1934375 8.38421875 -1.636875 9.0184375 -2.09375 9.671875 C-4.50667742 13.07836077 -6.91977216 16.15006957 -10 19 C-10 17.68 -10 16.36 -10 15 C-9.34 15 -8.68 15 -8 15 C-8 14.34 -8 13.68 -8 13 C-7.34 13 -6.68 13 -6 13 C-6.33 11.68 -6.66 10.36 -7 9 C-6.34 8.67 -5.68 8.34 -5 8 C-3.04909708 5.20801659 -3.04909708 5.20801659 -1.9375 2.875 C-1 1 -1 1 0 0 Z " fill="#DF5B63" transform="translate(285,250)"/>
<path d="M0 0 C2.91722548 -0.08103404 5.83219516 -0.14051081 8.75 -0.1875 C9.575 -0.21263672 10.4 -0.23777344 11.25 -0.26367188 C17.42297754 -0.33834499 17.42297754 -0.33834499 20.578125 1.51171875 C21.28195312 2.24841797 21.28195312 2.24841797 22 3 C21.43603516 2.99476318 20.87207031 2.98952637 20.29101562 2.98413086 C17.69402211 2.96312733 15.09704656 2.95026638 12.5 2.9375 C11.1696875 2.92493164 11.1696875 2.92493164 9.8125 2.91210938 C4.44176914 2.89236404 -0.68633663 3.21164107 -6 4 C-5.34 3.34 -4.68 2.68 -4 2 C-2.68 2 -1.36 2 0 2 C0 1.34 0 0.68 0 0 Z " fill="#3F273E" transform="translate(240,167)"/>
<path d="M0 0 C0.66 0 1.32 0 2 0 C2 0.66 2 1.32 2 2 C3.65 2.33 5.3 2.66 7 3 C7 5.31 7 7.62 7 10 C7.66 10 8.32 10 9 10 C9.680625 11.4540625 9.680625 11.4540625 10.375 12.9375 C11.65786221 16.07079582 11.65786221 16.07079582 14 17 C14 18.65 14 20.3 14 22 C11.20422391 18.61434588 8.75501627 15.16522751 6.4375 11.4375 C4.79570856 8.80112667 3.18681983 6.24129122 1.28515625 3.78515625 C0 2 0 2 0 0 Z " fill="#402A41" transform="translate(201,267)"/>
<path d="M0 0 C0.33 0.99 0.66 1.98 1 3 C2.32148827 3.37756808 3.65835921 3.7018576 5 4 C6.67016516 4.99414593 8.33720673 5.9935725 10 7 C10.66 7 11.32 7 12 7 C12.99 9.97 13.98 12.94 15 16 C13.948125 15.0925 12.89625 14.185 11.8125 13.25 C6.7376925 8.91759921 1.85299286 5.21340784 -4 2 C-2.68 1.34 -1.36 0.68 0 0 Z " fill="#3F2D43" transform="translate(275,172)"/>
<path d="M0 0 C1.11375 0.185625 2.2275 0.37125 3.375 0.5625 C6.82568861 1.31680657 6.82568861 1.31680657 9 0 C9.66 0.66 10.32 1.32 11 2 C10.67 2.99 10.34 3.98 10 5 C11.32 5 12.64 5 14 5 C14 5.66 14 6.32 14 7 C14.99 7.33 15.98 7.66 17 8 C17 8.66 17 9.32 17 10 C12.97683781 8.51463956 9.38707358 6.60123107 5.6875 4.4375 C4.61886719 3.81746094 3.55023438 3.19742187 2.44921875 2.55859375 C1.64097656 2.04425781 0.83273438 1.52992188 0 1 C0 0.67 0 0.34 0 0 Z " fill="#F37474" transform="translate(230,488)"/>
<path d="M0 0 C-0.80824219 0.30292969 -1.61648437 0.60585937 -2.44921875 0.91796875 C-8.43858528 3.26603162 -12.59423961 5.20549605 -17 10 C-20.3125 11.3125 -20.3125 11.3125 -23 12 C-18.93635983 5.71982882 -7.84440219 -2.90533414 0 0 Z " fill="#CC5E67" transform="translate(238,172)"/>
<path d="M0 0 C0.33 0.66 0.66 1.32 1 2 C-1.2392516 5.53566043 -3.06119434 6.68706478 -7 8 C-7.845625 8.391875 -8.69125 8.78375 -9.5625 9.1875 C-12 10 -12 10 -16 9 C-10.72 6.03 -5.44 3.06 0 0 Z " fill="#F07B7D" transform="translate(247,1)"/>
<path d="M0 0 C0.66 0.99 1.32 1.98 2 3 C1.01 3.33 0.02 3.66 -1 4 C-0.9175 4.721875 -0.835 5.44375 -0.75 6.1875 C-1.07941399 9.89340735 -2.40311527 11.40311527 -5 14 C-5.99 14 -6.98 14 -8 14 C-6.58036591 8.32146365 -3.60636039 4.46825784 0 0 Z " fill="#DF5A61" transform="translate(296,272)"/>
<path d="M0 0 C1.32 0.33 2.64 0.66 4 1 C4 1.66 4 2.32 4 3 C3.34 3 2.68 3 2 3 C2.33 5.97 2.66 8.94 3 12 C-3.6 12 -10.2 12 -17 12 C-17 11.67 -17 11.34 -17 11 C-11.06 11 -5.12 11 1 11 C0.67 7.37 0.34 3.74 0 0 Z " fill="#E15D66" transform="translate(235,289)"/>
<path d="M0 0 C0.33 0 0.66 0 1 0 C1.36597111 5.48956661 1.36597111 5.48956661 -0.1875 7.65625 C-2.55274362 9.40979269 -4.26954861 9.49802264 -7.1875 9.6875 C-8.08855469 9.75324219 -8.98960937 9.81898438 -9.91796875 9.88671875 C-10.94857422 9.94279297 -10.94857422 9.94279297 -12 10 C-12.33 10.99 -12.66 11.98 -13 13 C-14.98 13.33 -16.96 13.66 -19 14 C-15.12303154 9.69225726 -12.03863347 8.27642488 -6.3125 7.5 C-2.92867967 7.32444564 -2.92867967 7.32444564 -1 5 C-0.35232207 2.42938689 -0.35232207 2.42938689 0 0 Z " fill="#D75B63" transform="translate(256,192)"/>
<path d="M0 0 C5.6201857 0.6853885 11.06515769 1.81550062 14.9375 6.1875 C15.288125 6.785625 15.63875 7.38375 16 8 C15.01 8.495 15.01 8.495 14 9 C11.54961707 7.75717988 9.226675 6.47117661 6.875 5.0625 C6.21628906 4.67642578 5.55757812 4.29035156 4.87890625 3.89257812 C3.248387 2.93553422 1.62363816 1.96867185 0 1 C0 0.67 0 0.34 0 0 Z " fill="#F17B7F" transform="translate(123,426)"/>
<path d="M0 0 C0.99 0 1.98 0 3 0 C3 0.66 3 1.32 3 2 C-2.28 4.97 -7.56 7.94 -13 11 C-13.33 10.01 -13.66 9.02 -14 8 C-11.35261084 6.5393715 -10.10551666 6 -7 6 C-7 5.34 -7 4.68 -7 4 C-6.01 4 -5.02 4 -4 4 C-4 3.34 -4 2.68 -4 2 C-2.68 2 -1.36 2 0 2 C0 1.34 0 0.68 0 0 Z " fill="#ED7C7C" transform="translate(457,377)"/>
<path d="M0 0 C-9.42857143 8 -9.42857143 8 -14 8 C-13.67 6.35 -13.34 4.7 -13 3 C-11.02 3 -9.04 3 -7 3 C-7 2.34 -7 1.68 -7 1 C-4.53721199 -0.231394 -2.7204945 -0.07159196 0 0 Z " fill="#F27377" transform="translate(312,464)"/>
<path d="M0 0 C2.0625 0.4375 2.0625 0.4375 4 1 C2.49637741 4.78716158 0.94512999 8.55245187 -0.625 12.3125 C-1.07101563 13.38113281 -1.51703125 14.44976562 -1.9765625 15.55078125 C-2.31429687 16.35902344 -2.65203125 17.16726562 -3 18 C-4.14671608 14.1560785 -3.51721724 12.70875326 -2 9 C-1.77808734 7.58831467 -1.59224585 6.17061762 -1.4375 4.75 C-1 1 -1 1 0 0 Z " fill="#E65D64" transform="translate(188,180)"/>
<path d="M0 0 C4.04301175 1.48518799 7.61146256 3.42877998 11.3125 5.625 C12.38113281 6.25664063 13.44976562 6.88828125 14.55078125 7.5390625 C15.76314453 8.26222656 15.76314453 8.26222656 17 9 C13.37673261 10.2077558 12.35853631 9.54311128 9 8 C9 7.34 9 6.68 9 6 C8.443125 5.896875 7.88625 5.79375 7.3125 5.6875 C4.5230899 4.85821592 2.3860936 3.65700944 0 2 C0 1.34 0 0.68 0 0 Z " fill="#F07D7E" transform="translate(379,75)"/>
<path d="M0 0 C0.55945313 0.19335938 1.11890625 0.38671875 1.6953125 0.5859375 C9.02740672 2.96709993 16.36161402 4.06446281 24 5 C24 5.33 24 5.66 24 6 C21.62468606 6.0543965 19.25064117 6.09385864 16.875 6.125 C16.20984375 6.14175781 15.5446875 6.15851563 14.859375 6.17578125 C10.50483944 6.21847278 7.04399886 5.59996217 3 4 C3 3.34 3 2.68 3 2 C2.01 2 1.02 2 0 2 C0 1.34 0 0.68 0 0 Z " fill="#DA5A69" transform="translate(232,345)"/>
<path d="M0 0 C-1.36983503 3.16115776 -1.9890638 3.9927092 -5 6 C-5.66 6 -6.32 6 -7 6 C-8.62514468 7.45833358 -8.62514468 7.45833358 -10 9 C-11.32 8.34 -12.64 7.68 -14 7 C-12.04480616 5.82807953 -10.0857461 4.6626071 -8.125 3.5 C-7.03445312 2.8503125 -5.94390625 2.200625 -4.8203125 1.53125 C-2 0 -2 0 0 0 Z " fill="#F1787C" transform="translate(161,52)"/>
<path d="M0 0 C0.33 0 0.66 0 1 0 C1.06058594 1.05960938 1.12117187 2.11921875 1.18359375 3.2109375 C1.26800127 4.59897221 1.35264917 5.98699232 1.4375 7.375 C1.47681641 8.07367188 1.51613281 8.77234375 1.55664062 9.4921875 C1.74280134 13.37360492 1.74280134 13.37360492 3 17 C3.06996014 18.70702735 3.08440154 20.41668003 3.0625 22.125 C3.05347656 23.03507812 3.04445312 23.94515625 3.03515625 24.8828125 C3.01775391 25.93082031 3.01775391 25.93082031 3 27 C0.73528429 22.77253067 -0.13003282 19.24485701 -0.09765625 14.453125 C-0.09443359 13.60878906 -0.09121094 12.76445312 -0.08789062 11.89453125 C-0.07951172 11.02183594 -0.07113281 10.14914063 -0.0625 9.25 C-0.05798828 8.36183594 -0.05347656 7.47367188 -0.04882812 6.55859375 C-0.037074 4.37232671 -0.02064249 2.18619821 0 0 Z " fill="#412C42" transform="translate(182,213)"/>
<path d="M0 0 C1.32 0.66 2.64 1.32 4 2 C3.06725891 3.12894876 2.12859878 4.25300876 1.1875 5.375 C0.66542969 6.00148437 0.14335937 6.62796875 -0.39453125 7.2734375 C-2 9 -2 9 -5 11 C-5.33 9.35 -5.66 7.7 -6 6 C-4.68 6.33 -3.36 6.66 -2 7 C-2.061875 5.824375 -2.061875 5.824375 -2.125 4.625 C-2 2 -2 2 0 0 Z " fill="#362B49" transform="translate(214,178)"/>
<path d="M0 0 C1.32 0 2.64 0 4 0 C4 0.66 4 1.32 4 2 C5.32 2 6.64 2 8 2 C8 2.66 8 3.32 8 4 C9.32 4 10.64 4 12 4 C12 4.66 12 5.32 12 6 C12.639375 6.103125 13.27875 6.20625 13.9375 6.3125 C14.618125 6.539375 15.29875 6.76625 16 7 C16.33 7.99 16.66 8.98 17 10 C12.97683781 8.51463956 9.38707358 6.60123107 5.6875 4.4375 C4.61886719 3.81746094 3.55023438 3.19742187 2.44921875 2.55859375 C1.64097656 2.04425781 0.83273438 1.52992188 0 1 C0 0.67 0 0.34 0 0 Z " fill="#EF8183" transform="translate(56,387)"/>
<path d="M0 0 C0 0.66 0 1.32 0 2 C-3.82444243 5.64232612 -6.80474854 7.6393389 -12 9 C-12.66 8.34 -13.32 7.68 -14 7 C-12.04480616 5.82807953 -10.0857461 4.6626071 -8.125 3.5 C-7.03445312 2.8503125 -5.94390625 2.200625 -4.8203125 1.53125 C-2 0 -2 0 0 0 Z " fill="#F27D7D" transform="translate(51,116)"/>
<path d="M0 0 C1.45945288 0.08708669 2.91765868 0.19526907 4.375 0.3125 C5.59316406 0.39951172 5.59316406 0.39951172 6.8359375 0.48828125 C9 1 9 1 11 4 C11.99 4.66 12.98 5.32 14 6 C12.328125 6.6796875 12.328125 6.6796875 10 7 C7.421875 5.8203125 7.421875 5.8203125 4.75 4.125 C3.85796875 3.57070313 2.9659375 3.01640625 2.046875 2.4453125 C1.37140625 1.96835937 0.6959375 1.49140625 0 1 C0 0.67 0 0.34 0 0 Z " fill="#F17A7D" transform="translate(92,408)"/>
<path d="M0 0 C5.96652354 1.57013777 10.82909025 4.75029782 16 8 C15.01 8.66 14.02 9.32 13 10 C10.5 8.625 10.5 8.625 8 7 C8 6.34 8 5.68 8 5 C7.05125 4.9175 6.1025 4.835 5.125 4.75 C2 4 2 4 0.625 1.9375 C0.41875 1.298125 0.2125 0.65875 0 0 Z " fill="#F08686" transform="translate(334,49)"/>
<path d="M0 0 C2 0 2 0 4.125 1.75 C6 4 6 4 6 8 C6.66 8 7.32 8 8 8 C8 8.99 8 9.98 8 11 C8.66 11 9.32 11 10 11 C10 12.65 10 14.3 10 16 C7.72504637 12.99006136 5.50072306 9.94860471 3.3125 6.875 C2.68988281 6.00617188 2.06726563 5.13734375 1.42578125 4.2421875 C0 2 0 2 0 0 Z " fill="#D95C62" transform="translate(303,174)"/>
<path d="M0 0 C4.30764815 1.56641751 8.06171464 3.68336156 12 6 C9.57028208 6.8677564 8.4619665 7.20863003 6.0625 6.125 C5.381875 5.75375 4.70125 5.3825 4 5 C2.34259285 4.62331656 0.67654729 4.27942455 -1 4 C-0.67 2.68 -0.34 1.36 0 0 Z " fill="#F27C7F" transform="translate(362,65)"/>
<path d="M0 0 C3.99824088 3.66505414 6.60168569 7.11112852 9 12 C8.67 12.66 8.34 13.32 8 14 C7.34 12.68 6.68 11.36 6 10 C5.34 10 4.68 10 4 10 C4 9.01 4 8.02 4 7 C2.68 6.34 1.36 5.68 0 5 C0 3.35 0 1.7 0 0 Z " fill="#432C41" transform="translate(221,265)"/>
<path d="M0 0 C-1.45399296 3.83325416 -3.3080115 5.28279605 -7 7 C-9.8125 7.1875 -9.8125 7.1875 -12 7 C-9.20232475 3.70861735 -4.40323273 0 0 0 Z " fill="#F37A7E" transform="translate(173,45)"/>
<path d="M0 0 C0.66 0 1.32 0 2 0 C2 1.32 2 2.64 2 4 C2.66 4 3.32 4 4 4 C4 4.99 4 5.98 4 7 C4.66 7 5.32 7 6 7 C6.66 9.97 7.32 12.94 8 16 C5.0821484 13.0821484 3.95325765 11.1378273 2.3125 7.4375 C1.87550781 6.46683594 1.43851563 5.49617187 0.98828125 4.49609375 C0 2 0 2 0 0 Z " fill="#422943" transform="translate(185,240)"/>
<path d="M0 0 C-1.95519384 1.17192047 -3.9142539 2.3373929 -5.875 3.5 C-6.96554687 4.1496875 -8.05609375 4.799375 -9.1796875 5.46875 C-12 7 -12 7 -14 7 C-14 6.01 -14 5.02 -14 4 C-12.35 4 -10.7 4 -9 4 C-9 3.34 -9 2.68 -9 2 C-8.01 2 -7.02 2 -6 2 C-6 1.34 -6 0.68 -6 0 C-3 -1 -3 -1 0 0 Z " fill="#ED7F87" transform="translate(377,427)"/>
<path d="M0 0 C1.32 0 2.64 0 4 0 C4.33 0.99 4.66 1.98 5 3 C5.99 3.66 6.98 4.32 8 5 C8 5.66 8 6.32 8 7 C4.40608886 5.66511872 1.24509304 4.03977277 -2 2 C-1.34 1.34 -0.68 0.68 0 0 Z " fill="#EF7778" transform="translate(48,380)"/>
<path d="M0 0 C-1.44077046 3.36179774 -3.24750021 5.59156268 -6 8 C-6.66 8 -7.32 8 -8 8 C-7.8125 5.6875 -7.8125 5.6875 -7 3 C-2.96551724 0 -2.96551724 0 0 0 Z " fill="#F37274" transform="translate(147,60)"/>
<path d="M0 0 C-0.33 1.65 -0.66 3.3 -1 5 C-5.455 5.495 -5.455 5.495 -10 6 C-4 0 -4 0 0 0 Z " fill="#F27E80" transform="translate(61,110)"/>
<path d="M0 0 C0 0.66 0 1.32 0 2 C-0.66 2 -1.32 2 -2 2 C-2 2.66 -2 3.32 -2 4 C-3.65 4.33 -5.3 4.66 -7 5 C-7 5.66 -7 6.32 -7 7 C-8.65 7 -10.3 7 -12 7 C-9.20232475 3.70861735 -4.40323273 0 0 0 Z " fill="#F08382" transform="translate(223,16)"/>
<path d="M0 0 C2 2 2 2 2.1953125 3.9453125 C2.13020833 5.96354167 2.06510417 7.98177083 2 10 C0.02 10.99 0.02 10.99 -2 12 C-1.34 8.04 -0.68 4.08 0 0 Z " fill="#4E2F47" transform="translate(299,224)"/>
<path d="M0 0 C4.61513112 1.31860889 8.09897612 3.21355437 12 6 C11.01 6.66 10.02 7.32 9 8 C8.67 7.01 8.34 6.02 8 5 C6.8553125 4.814375 6.8553125 4.814375 5.6875 4.625 C3 4 3 4 0 2 C0 1.34 0 0.68 0 0 Z " fill="#F08888" transform="translate(396,85)"/>
<path d="M0 0 C-1.62170379 1.00533667 -3.24747237 2.00411907 -4.875 3 C-6.23238281 3.8353125 -6.23238281 3.8353125 -7.6171875 4.6875 C-10 6 -10 6 -12 6 C-12 5.01 -12 4.02 -12 3 C-10.75823305 2.29773859 -9.50614401 1.61370891 -8.25 0.9375 C-7.20585937 0.36322266 -7.20585937 0.36322266 -6.140625 -0.22265625 C-3.63859372 -1.1312406 -2.4667645 -0.88336837 0 0 Z " fill="#F07B7C" transform="translate(355,440)"/>
<path d="M0 0 C-1.95585325 1.00484204 -3.91476237 2.00373805 -5.875 3 C-6.96554688 3.556875 -8.05609375 4.11375 -9.1796875 4.6875 C-12 6 -12 6 -14 6 C-14.33 5.01 -14.66 4.02 -15 3 C-3 -1 -3 -1 0 0 Z " fill="#DC5C66" transform="translate(228,154)"/>
<path d="M0 0 C0 0.66 0 1.32 0 2 C-0.99 2 -1.98 2 -3 2 C-3.33 2.99 -3.66 3.98 -4 5 C-5.8125 6.25 -5.8125 6.25 -8 7 C-10.13671875 6.546875 -10.13671875 6.546875 -12 6 C-10.37829621 4.99466333 -8.75252763 3.99588093 -7.125 3 C-5.76761719 2.1646875 -5.76761719 2.1646875 -4.3828125 1.3125 C-2 0 -2 0 0 0 Z " fill="#EF8487" transform="translate(87,95)"/>
<path d="M0 0 C0.66 0.33 1.32 0.66 2 1 C0.9375 3.5 0.9375 3.5 -1 6 C-4.6875 6.3125 -4.6875 6.3125 -8 6 C-5.63404067 3.38499232 -3.13950774 1.61000397 0 0 Z " fill="#F08081" transform="translate(181,39)"/>
<path d="M0 0 C0.66 0.33 1.32 0.66 2 1 C1 4 1 4 -2 6 C-5.1875 6.125 -5.1875 6.125 -8 6 C-5.38485683 3.87961365 -2.80362384 1.86908256 0 0 Z " fill="#ED8283" transform="translate(198,29)"/>
<path d="M0 0 C0.99 0 1.98 0 3 0 C3.0825 0.78375 3.165 1.5675 3.25 2.375 C3.72806339 5.14749104 3.72806339 5.14749104 6.0625 6.3125 C6.701875 6.539375 7.34125 6.76625 8 7 C7.67 8.32 7.34 9.64 7 11 C5.83051998 9.35616456 4.6644855 7.70987731 3.5 6.0625 C2.8503125 5.14597656 2.200625 4.22945313 1.53125 3.28515625 C0 1 0 1 0 0 Z " fill="#DF5B64" transform="translate(213,252)"/>
<path d="M0 0 C2 1.625 2 1.625 4 4 C4.25 7.25 4.25 7.25 4 10 C3.67 9.34 3.34 8.68 3 8 C0.98330173 6.86649466 0.98330173 6.86649466 -1 6 C-0.67 4.02 -0.34 2.04 0 0 Z " fill="#332B4A" transform="translate(306,180)"/>
<path d="M0 0 C0 0.66 0 1.32 0 2 C-0.99 2 -1.98 2 -3 2 C-3 2.66 -3 3.32 -3 4 C-5.25 5.6875 -5.25 5.6875 -8 7 C-10.171875 6.58203125 -10.171875 6.58203125 -12 6 C-10.37829621 4.99466333 -8.75252763 3.99588093 -7.125 3 C-5.76761719 2.1646875 -5.76761719 2.1646875 -4.3828125 1.3125 C-2 0 -2 0 0 0 Z " fill="#EF8A8E" transform="translate(111,81)"/>
<path d="M0 0 C2.4375 0.75 2.4375 0.75 5 2 C5.8125 4.125 5.8125 4.125 6 6 C4.35 6.33 2.7 6.66 1 7 C0.67 4.69 0.34 2.38 0 0 Z " fill="#F46B6B" transform="translate(374,72)"/>
<path d="M0 0 C0.99 0 1.98 0 3 0 C3 0.99 3 1.98 3 3 C3.66 3 4.32 3 5 3 C6.6875 5.375 6.6875 5.375 8 8 C7.67 8.66 7.34 9.32 7 10 C6.01524786 8.90081184 5.03739527 7.7954398 4.0625 6.6875 C3.51722656 6.07261719 2.97195312 5.45773437 2.41015625 4.82421875 C1 3 1 3 0 0 Z " fill="#412A40" transform="translate(222,332)"/>
<path d="M0 0 C0.625 1.8125 0.625 1.8125 1 4 C0.01 5.485 0.01 5.485 -1 7 C-1.39387788 9.32387947 -1.73486085 11.65793749 -2 14 C-2.66 14 -3.32 14 -4 14 C-3.53328373 8.58609132 -2.75702189 4.79482068 0 0 Z " fill="#D45D66" transform="translate(287,286)"/>
<path d="M0 0 C0 0.66 0 1.32 0 2 C-6.45 6.09326923 -6.45 6.09326923 -9.234375 5.62109375 C-9.81703125 5.41613281 -10.3996875 5.21117187 -11 5 C-9.54462432 4.16151196 -8.08559627 3.32936066 -6.625 2.5 C-5.81289062 2.0359375 -5.00078125 1.571875 -4.1640625 1.09375 C-2 0 -2 0 0 0 Z " fill="#ED8588" transform="translate(211,23)"/>
<path d="M0 0 C1.65 0 3.3 0 5 0 C4.34 1.98 3.68 3.96 3 6 C2.01 5.67 1.02 5.34 0 5 C0 3.35 0 1.7 0 0 Z " fill="#312D47" transform="translate(274,329)"/>
<path d="M0 0 C0.99 0 1.98 0 3 0 C1.41037341 4.03520597 -0.28232318 8.01811282 -2 12 C-3.12377697 8.69564916 -2.89554742 6.9493138 -1.5625 3.75 C-1.27503906 3.04359375 -0.98757812 2.3371875 -0.69140625 1.609375 C-0.46324219 1.07828125 -0.23507813 0.5471875 0 0 Z " fill="#DE5C6A" transform="translate(222,199)"/>
<path d="M0 0 C0.99 0 1.98 0 3 0 C3 1.32 3 2.64 3 4 C3.66 4 4.32 4 5 4 C7.125 8.625 7.125 8.625 6 12 C4.99466333 10.37829621 3.99588093 8.75252763 3 7.125 C2.443125 6.22007812 1.88625 5.31515625 1.3125 4.3828125 C0 2 0 2 0 0 Z " fill="#4B2C3E" transform="translate(290,188)"/>
<path d="M0 0 C-5.75 4 -5.75 4 -8 4 C-8 2.68 -8 1.36 -8 0 C-4.94736336 -0.98120464 -3.05263664 -0.98120464 0 0 Z " fill="#ED7B7B" transform="translate(418,403)"/>
<path d="M0 0 C5.875 0.875 5.875 0.875 7 2 C7.66 1.34 8.32 0.68 9 0 C9 1.65 9 3.3 9 5 C5.22454612 3.90931332 2.52956528 3.0916909 0 0 Z " fill="#F07B7E" transform="translate(37,376)"/>
<path d="M0 0 C1.32 0.33 2.64 0.66 4 1 C1.69 3.31 -0.62 5.62 -3 8 C-3.33 7.01 -3.66 6.02 -4 5 C-3.525625 4.54625 -3.05125 4.0925 -2.5625 3.625 C-0.90972192 2.06741796 -0.90972192 2.06741796 0 0 Z " fill="#3B2940" transform="translate(272,336)"/>
<path d="M0 0 C0.78375 0.185625 1.5675 0.37125 2.375 0.5625 C4.97089775 1.25962266 4.97089775 1.25962266 7 0 C6.34 1.98 5.68 3.96 5 6 C4.34 6 3.68 6 3 6 C3 5.34 3 4.68 3 4 C2.34 4 1.68 4 1 4 C0.67 2.68 0.34 1.36 0 0 Z " fill="#342B4A" transform="translate(280,286)"/>
<path d="M0 0 C0 0.99 0 1.98 0 3 C-5.2734375 6.22265625 -5.2734375 6.22265625 -7 7 C-7.66 6.67 -8.32 6.34 -9 6 C-6.22719294 2.91910327 -3.93673644 1.31224548 0 0 Z " fill="#E65B61" transform="translate(224,177)"/>
<path d="M0 0 C3.59391114 1.33488128 6.75490696 2.96022723 10 5 C9.34 5.66 8.68 6.32 8 7 C7.34 6.67 6.68 6.34 6 6 C6 5.34 6 4.68 6 4 C4.35 3.67 2.7 3.34 1 3 C0.67 2.01 0.34 1.02 0 0 Z " fill="#EF888B" transform="translate(324,43)"/>
<path d="M0 0 C1.98 0 3.96 0 6 0 C6 0.66 6 1.32 6 2 C6.99 2.33 7.98 2.66 9 3 C9 3.66 9 4.32 9 5 C5.54074837 3.7508258 2.85306797 2.32472205 0 0 Z " fill="#EC7F80" transform="translate(238,493)"/>
<path d="M0 0 C5.5 -0.36666667 5.5 -0.36666667 7.875 1.375 C9 3 9 3 9 5 C5.22454612 3.90931332 2.52956528 3.0916909 0 0 Z " fill="#F18488" transform="translate(183,461)"/>
<path d="M0 0 C1.65 0.33 3.3 0.66 5 1 C0.25 5.875 0.25 5.875 -2 7 C-1.125 2.25 -1.125 2.25 0 0 Z " fill="#342A42" transform="translate(237,200)"/>
<path d="M0 0 C-1.28813342 0.83878455 -2.58063256 1.67086783 -3.875 2.5 C-4.59429687 2.9640625 -5.31359375 3.428125 -6.0546875 3.90625 C-8 5 -8 5 -10 5 C-9.67 4.01 -9.34 3.02 -9 2 C-8.01 2 -7.02 2 -6 2 C-6 1.34 -6 0.68 -6 0 C-3 -1 -3 -1 0 0 Z " fill="#EE8687" transform="translate(274,487)"/>
<path d="M0 0 C2.97 0.495 2.97 0.495 6 1 C6 1.66 6 2.32 6 3 C7.65 3 9.3 3 11 3 C9.4375 4.25 9.4375 4.25 7 5 C4.42998985 3.93237266 2.3469597 2.53455057 0 1 C0 0.67 0 0.34 0 0 Z " fill="#EF8286" transform="translate(159,447)"/>
<path d="M0 0 C5.53846154 0.61538462 5.53846154 0.61538462 7.875 2.5625 C8.431875 3.2740625 8.431875 3.2740625 9 4 C8.01 4.495 8.01 4.495 7 5 C4.5249829 3.88568235 2.32116581 2.41849022 0 1 C0 0.67 0 0.34 0 0 Z " fill="#EF8386" transform="translate(221,483)"/>
<path d="M0 0 C-3.96 1.98 -3.96 1.98 -8 4 C-8 2.68 -8 1.36 -8 0 C-4.63458162 -1.08174162 -3.70152678 -0.92538169 0 0 Z " fill="#EE8280" transform="translate(295,475)"/>
<path d="M0 0 C3.45925163 1.2491742 6.14693203 2.67527795 9 5 C5.26512223 4.5020163 3.18762365 4.12508244 0 2 C0 1.34 0 0.68 0 0 Z " fill="#EE8A8E" transform="translate(379,75)"/>
<path d="M0 0 C2 2 2 2 2 5 C-0.02045442 4.39816251 -2.02111039 3.72693904 -4 3 C-4.33 2.34 -4.66 1.68 -5 1 C-2.625 0.375 -2.625 0.375 0 0 Z " fill="#F17A7B" transform="translate(173,451)"/>
<path d="M0 0 C0.33 0 0.66 0 1 0 C1 2.64 1 5.28 1 8 C-0.65 8.66 -2.3 9.32 -4 10 C-4 9.01 -4 8.02 -4 7 C-2.68 7 -1.36 7 0 7 C0 4.69 0 2.38 0 0 Z " fill="#E5878C" transform="translate(464,368)"/>
<path d="M0 0 C0.66 0.33 1.32 0.66 2 1 C-0.475 4.465 -0.475 4.465 -3 8 C-4.24546405 5.50907189 -3.7767578 4.58919267 -3 2 C-2.01 2 -1.02 2 0 2 C0 1.34 0 0.68 0 0 Z " fill="#462942" transform="translate(304,258)"/>
<path d="M0 0 C1.96301592 3.50538557 2.95902388 7.13351728 4 11 C2 9.4375 2 9.4375 0 7 C-0.25 3.25 -0.25 3.25 0 0 Z " fill="#D45C68" transform="translate(183,236)"/>
<path d="M0 0 C0.66 0.33 1.32 0.66 2 1 C1.67 1.66 1.34 2.32 1 3 C0.34 3 -0.32 3 -1 3 C-1 3.66 -1 4.32 -1 5 C-2.65 5 -4.3 5 -6 5 C-4.06745228 2.9754262 -2.36841312 1.57894208 0 0 Z " fill="#EF8C8C" transform="translate(229,11)"/>
</svg>
