<?xml version="1.0" encoding="UTF-8"?>
<svg version="1.1" xmlns="http://www.w3.org/2000/svg" width="500" height="500">
<path d="M0 0 C2.99826942 0.86406561 5.39283152 2.0785558 8.10839844 3.61572266 C9.65998657 4.48861938 9.65998657 4.48861938 11.24291992 5.37915039 C12.88176147 6.31609741 12.88176147 6.31609741 14.55371094 7.27197266 C15.68558838 7.91271729 16.81746582 8.55346191 17.98364258 9.21362305 C24.30832852 12.8068344 30.59240118 16.45491123 36.80541992 20.23803711 C42.85204081 23.91047375 48.98435197 27.43172486 55.11621094 30.95947266 C63.6924232 35.89457787 72.25906843 40.84487984 80.80371094 45.83447266 C81.78670166 46.40842773 82.76969238 46.98238281 83.7824707 47.57373047 C87.734675 49.8821837 91.68617247 52.19184539 95.63769531 54.50146484 C106.96723985 61.12219077 118.30847697 67.72132492 129.67871094 74.27197266 C141.04611913 80.8209924 152.38434705 87.41877121 163.7109375 94.03808594 C167.57265285 96.2942477 171.43589721 98.54778286 175.29931641 100.80102539 C177.27083528 101.95086442 179.23756725 103.10913543 181.19178826 104.28813362 C186.36144254 107.37314078 191.49647403 110.20823493 196.99977779 112.65550232 C212.605559 119.93645265 212.605559 119.93645265 216.04745793 126.30427933 C218.22238451 133.49684842 217.78766632 140.87793066 217.54614258 148.30712891 C217.55411797 150.77238764 217.57254597 153.23763119 217.60057068 155.70274353 C217.64105188 161.67612012 217.57128205 167.63877016 217.44929201 173.61025757 C217.31216784 180.56985788 217.30458856 187.52786713 217.30211621 194.48859906 C217.2935132 206.90659445 217.17159219 219.32083809 216.98364258 231.73730469 C216.80154921 243.77514269 216.6955506 255.81038844 216.67602539 267.84960938 C216.67420029 268.96360739 216.67420029 268.96360739 216.67233831 270.10011041 C216.67114343 270.8415195 216.66994854 271.58292859 216.66871744 272.34680462 C216.66629979 273.83971854 216.66385588 275.33263243 216.66138554 276.82554626 C216.66018103 277.56187088 216.65897653 278.29819549 216.65773553 279.05683297 C216.63591817 290.55066224 216.54651352 302.04408621 216.44951462 313.53749079 C216.41518362 317.69699159 216.39049981 321.85642026 216.37276418 326.01602334 C216.3416368 333.22602258 216.2642311 340.43358867 216.13572121 347.64267159 C216.09982897 350.03624109 216.07910106 352.43009264 216.07455826 354.82392693 C216.06554146 358.09009434 216.00130557 361.35060058 215.92250061 364.61572266 C215.93234531 365.56532395 215.94219001 366.51492525 215.95233303 367.49330235 C215.80354767 371.48412948 215.66401978 373.82934041 212.69926822 376.66567993 C210.41588114 378.20714637 208.13020715 379.51929715 205.67871094 380.77197266 C204.67960693 381.37783203 203.68050293 381.98369141 202.65112305 382.60791016 C201.76175049 383.11580078 200.87237793 383.62369141 199.95605469 384.14697266 C198.93576172 384.73220703 197.91546875 385.31744141 196.86425781 385.92041016 C195.79240234 386.53142578 194.72054688 387.14244141 193.61621094 387.77197266 C191.29169114 389.10478514 188.96748005 390.43812509 186.64355469 391.77197266 C185.76550674 392.27531128 185.76550674 392.27531128 184.86972046 392.78881836 C179.12136582 396.08582549 173.39852873 399.42578858 167.67871094 402.77197266 C159.21665285 407.71858985 150.73511804 412.6302549 142.24121094 417.52197266 C134.49641137 421.98324446 126.76493749 426.46431549 119.06738281 431.0065918 C104.71748598 439.47365363 90.30936938 447.84016706 75.86621094 456.14697266 C66.96974863 461.26484787 58.12220941 466.4584897 49.30371094 471.70947266 C36.43819216 479.36830459 23.48044938 486.8649039 10.42285156 494.19189453 C8.7701397 495.1435272 7.13589006 496.13004572 5.54394531 497.18017578 C2.62827299 499.08890553 1.20745413 499.85801486 -2.29785156 499.28759766 C-5.85647133 497.50369007 -9.29713373 495.5888328 -12.69628906 493.52197266 C-14.21543619 492.61377774 -15.73499104 491.70626459 -17.25488281 490.79931641 C-18.07069824 490.31060059 -18.88651367 489.82188477 -19.72705078 489.31835938 C-24.38545755 486.54155263 -29.07304012 483.81479973 -33.75878906 481.08447266 C-34.77142822 480.49359863 -35.78406738 479.90272461 -36.82739258 479.29394531 C-44.24759335 474.96824695 -51.68838811 470.67910378 -59.13378906 466.39697266 C-68.03025218 461.27909697 -76.87775591 456.08539775 -85.69628906 450.83447266 C-96.08306945 444.65204436 -106.54145295 438.61131248 -117.046875 432.63378906 C-125.5279836 427.8067869 -133.9691818 422.91527412 -142.39111328 417.98583984 C-149.6200868 413.75687238 -156.87320972 409.57139727 -164.13378906 405.39697266 C-177.60339734 397.64538307 -190.97399023 389.73192134 -204.32128906 381.77197266 C-205.2996875 381.1907666 -206.27808594 380.60956055 -207.28613281 380.01074219 C-208.64931641 379.19839111 -208.64931641 379.19839111 -210.04003906 378.36962891 C-211.24563477 377.65238647 -211.24563477 377.65238647 -212.47558594 376.9206543 C-214.32128906 375.77197266 -214.32128906 375.77197266 -215.32128906 374.77197266 C-215.42560649 373.43825695 -215.46151368 372.09910746 -215.4694767 370.76134205 C-215.47701804 369.8922023 -215.48455938 369.02306255 -215.49232924 368.12758523 C-215.49555548 367.16185372 -215.49878171 366.1961222 -215.50210571 365.2011261 C-215.50931023 364.18361698 -215.51651475 363.16610786 -215.52393758 362.11776513 C-215.5468083 358.6800025 -215.56227743 355.24224721 -215.57763672 351.80444336 C-215.59207623 349.35100625 -215.60683373 346.89757099 -215.62188721 344.44413757 C-215.75223757 322.03398442 -215.81826364 299.62331638 -215.86973 277.21285725 C-215.8767392 274.21343774 -215.88386613 271.21401855 -215.89111328 268.21459961 C-215.89290857 267.46908528 -215.89470387 266.72357095 -215.89655356 265.95546528 C-215.92661709 253.87988989 -215.9913783 241.80474969 -216.06979974 229.72940192 C-216.1496116 217.33763426 -216.19540906 204.94609201 -216.20875585 192.55407208 C-216.21716805 185.59396172 -216.24095631 178.63462236 -216.30342484 171.67476845 C-216.36216025 165.1271678 -216.37538062 158.58060352 -216.35755157 152.03268623 C-216.35843225 149.62759988 -216.37477376 147.22246278 -216.40759659 144.81760025 C-216.45006455 141.5360914 -216.43717882 138.25930432 -216.41030884 134.97773743 C-216.43584229 134.02315952 -216.46137574 133.06858162 -216.48768294 132.08507711 C-216.40344545 128.07601563 -216.31832244 125.73042908 -213.34484839 122.87200391 C-211.06075651 121.33069779 -208.77509643 120.02102401 -206.32128906 118.77197266 C-205.382771 118.19640625 -204.44425293 117.62083984 -203.47729492 117.02783203 C-202.67171143 116.56183594 -201.86612793 116.09583984 -201.03613281 115.61572266 C-199.64128662 114.80566772 -199.64128662 114.80566772 -198.21826172 113.97924805 C-197.24163574 113.41584717 -196.26500977 112.85244629 -195.25878906 112.27197266 C-193.1194093 111.03118524 -190.980088 109.79029703 -188.84082031 108.54931641 C-187.75623535 107.92138184 -186.67165039 107.29344727 -185.55419922 106.64648438 C-181.49385754 104.29220984 -177.4417077 101.92408437 -173.38989258 99.55517578 C-162.96073786 93.45874363 -152.50449905 87.41038162 -142.03710938 81.37988281 C-130.77331656 74.88697388 -119.54576142 68.33254709 -108.32128906 61.77197266 C-94.91370188 53.93539282 -81.48969627 46.12918658 -68.03271484 38.37768555 C-59.80466602 33.63535972 -51.5977566 28.85777575 -43.39990234 24.06347656 C-38.02741519 20.92440525 -32.64581871 17.80210004 -27.25097656 14.70166016 C-26.66036438 14.36201233 -26.0697522 14.0223645 -25.46124268 13.67242432 C-22.59972041 12.02711537 -19.73694321 10.38410376 -16.87207031 8.74462891 C-15.32712891 7.85710938 -15.32712891 7.85710938 -13.75097656 6.95166016 C-12.31383301 6.12746582 -12.31383301 6.12746582 -10.84765625 5.28662109 C-8.76412531 4.03746899 -6.83783286 2.72615794 -4.89160156 1.27978516 C-2.32128906 -0.22802734 -2.32128906 -0.22802734 0 0 Z " fill="#CA6BE5" transform="translate(250.3212890625,0.22802734375)"/>
<path d="M0 0 C2.27745966 -0.00216237 4.55441435 -0.02029355 6.83178711 -0.03930664 C32.06267632 -0.13714248 65.81592076 2.270164 85.37670898 20.18530273 C86.2700293 20.95229492 87.16334961 21.71928711 88.08374023 22.50952148 C92.1127651 27.51490275 91.25780455 34.34583295 91.25170898 40.43530273 C91.33098633 42.34375977 91.33098633 42.34375977 91.41186523 44.29077148 C91.44750248 51.1972701 90.84879687 55.54188484 86.25952148 60.86889648 C82.52408887 64.44079803 79.11110996 66.95878231 74.37670898 68.99780273 C73.74571289 69.27076172 73.1147168 69.5437207 72.46459961 69.82495117 C54.3182616 77.40517954 34.57611061 81.28065404 14.95092773 81.38842773 C14.08921967 81.39544205 13.2275116 81.40245636 12.33969116 81.40968323 C9.58114314 81.42705866 6.82280968 81.43353334 4.06420898 81.43530273 C3.12229706 81.43597748 2.18038513 81.43665222 1.20993042 81.43734741 C-12.2673457 81.42198518 -25.42563736 81.19145097 -38.62329102 78.18530273 C-39.44748535 78.00306152 -40.27167969 77.82082031 -41.12084961 77.63305664 C-50.7111948 75.45764576 -59.93223657 72.90160873 -68.62329102 68.18530273 C-69.35805664 67.79600586 -70.09282227 67.40670898 -70.84985352 67.00561523 C-76.24618924 63.91333297 -80.8081482 59.81558837 -83.62329102 54.18530273 C-83.95041372 49.62918746 -83.94798526 45.06419321 -83.99829102 40.49780273 C-84.03567383 39.23000977 -84.07305664 37.9622168 -84.11157227 36.65600586 C-84.22034371 25.10810417 -84.22034371 25.10810417 -80.10375977 20.49511719 C-64.75546127 6.91602394 -42.08595122 3.84052482 -22.62329102 1.18530273 C-21.35364502 1.00805664 -20.08399902 0.83081055 -18.77587891 0.64819336 C-12.54019776 -0.12054216 -6.27276832 -0.00066329 0 0 Z " fill="#1E2F50" transform="translate(246.623291015625,149.814697265625)"/>
<path d="M0 0 C3.58500252 1.40416026 6.91879742 2.99324501 10.3125 4.8125 C20.71816241 10.02166839 31.64963186 12.87141137 43 15.1875 C43.75732422 15.34234863 44.51464844 15.49719727 45.29492188 15.65673828 C58.72711538 18.2435333 72.02647332 19.41457612 85.6875 19.375 C86.8124437 19.37368576 86.8124437 19.37368576 87.96011353 19.37234497 C115.69585208 19.26674696 145.13889795 15.9478319 169.3671875 1.50390625 C172 0 172 0 174 0 C174.09922655 5.85322174 174.17163763 11.70594877 174.21972656 17.55981445 C174.23978337 19.54915908 174.26703585 21.53844518 174.30175781 23.52758789 C174.35053771 26.39484131 174.37302827 29.26131211 174.390625 32.12890625 C174.41127014 33.01147598 174.43191528 33.89404572 174.45318604 34.80335999 C174.45558879 41.48649503 173.01028057 45.80812478 168.31640625 50.78515625 C137.7196601 73.06830991 88.77582947 73.38532764 53 68 C35.08279512 65.04735201 14.15309089 61.13308028 1.91430664 46.50756836 C-0.63112779 41.84358973 -0.50911874 38.22853105 -0.390625 33.0078125 C-0.38496521 32.06187225 -0.37930542 31.11593201 -0.37347412 30.1413269 C-0.35117571 27.13535858 -0.30099138 24.13060489 -0.25 21.125 C-0.22992656 19.08074644 -0.21167727 17.03647411 -0.1953125 14.9921875 C-0.15133228 9.99432735 -0.08234985 4.99736925 0 0 Z " fill="#1E2F50" transform="translate(163,224)"/>
<path d="M0 0 C1.58349243 0.80969238 1.58349243 0.80969238 3.19897461 1.63574219 C13.63209946 7.01913443 13.63209946 7.01913443 24.5625 11.25 C25.28228027 11.48614014 26.00206055 11.72228027 26.74365234 11.96557617 C36.57859714 15.01604787 46.8220388 16.56483294 57 18 C58.23194092 18.176521 59.46388184 18.35304199 60.7331543 18.53491211 C65.30693401 19.09652152 69.8451655 19.179647 74.44921875 19.203125 C75.34252396 19.20882507 76.23582916 19.21452515 77.15620422 19.22039795 C79.04463538 19.22980217 80.9330826 19.23636361 82.8215332 19.24023438 C85.63459239 19.24981972 88.44688113 19.28083619 91.25976562 19.3125 C113.42194871 19.44134425 135.13718876 16.11705095 156 8.5625 C156.76521973 8.28631836 157.53043945 8.01013672 158.31884766 7.72558594 C163.84529885 5.64008727 168.90774158 2.98477972 174 0 C174.14918422 5.12275667 174.25760412 10.24422831 174.32958984 15.36865234 C174.35961998 17.10878547 174.40045827 18.84876903 174.45263672 20.58837891 C174.92974225 36.91287212 174.92974225 36.91287212 171.1640625 42.0234375 C169.59228516 43.66162109 169.59228516 43.66162109 168 45 C167.01 45.86625 166.02 46.7325 165 47.625 C154.69917702 54.31940793 142.87233702 57.49402537 131 60 C130.3105127 60.14566406 129.62102539 60.29132813 128.91064453 60.44140625 C97.42347558 66.96054965 61.86345742 66.41657691 31 57 C29.93007812 56.69191406 28.86015625 56.38382812 27.7578125 56.06640625 C16.90900879 52.73999188 7.73514357 48.40378537 1 39 C-0.61301773 35.77396455 -0.12053599 32.25289962 -0.09765625 28.7109375 C-0.0962413 27.89251373 -0.09482635 27.07408997 -0.09336853 26.23086548 C-0.0877629 23.61220675 -0.07520948 20.99363296 -0.0625 18.375 C-0.05748572 16.60156373 -0.05292269 14.82812613 -0.04882812 13.0546875 C-0.03779164 8.70309218 -0.02052325 4.3515605 0 0 Z " fill="#1E2F50" transform="translate(163,286)"/>
<path d="M0 0 C1.83498047 0.68835938 1.83498047 0.68835938 3.70703125 1.390625 C17.90263668 6.60249694 31.96911793 10.26566745 47 12 C47 12.33 47 12.66 47 13 C42.05 13 37.1 13 32 13 C31.67 14.32 31.34 15.64 31 17 C33.31 17.66 35.62 18.32 38 19 C37.505 20.485 37.505 20.485 37 22 C38.98 22.33 40.96 22.66 43 23 C43 23.33 43 23.66 43 24 C36.52287162 24.25726912 30.79812177 23.35019098 24.5 21.875 C23.53674805 21.65126709 22.57349609 21.42753418 21.58105469 21.19702148 C8.96082692 18.15513165 -1.97281045 13.87458065 -13 7 C-13.02474322 12.05370732 -13.04288053 17.10737926 -13.05493164 22.16113281 C-13.0599563 23.87988906 -13.0667771 25.59864105 -13.07543945 27.31738281 C-13.0875868 29.78972426 -13.09324703 32.26200912 -13.09765625 34.734375 C-13.10281754 35.50118591 -13.10797882 36.26799683 -13.11329651 37.05804443 C-13.11366245 40.54849615 -12.93752738 43.64274473 -12 47 C-13.32 47 -14.64 47 -16 47 C-16.495 26.21 -16.495 26.21 -17 5 C-15 4 -15 4 -11.875 4.9375 C-10.92625 5.288125 -9.9775 5.63875 -9 6 C-9 6.66 -9 7.32 -9 8 C-6.6984589 8.77802187 -6.6984589 8.77802187 -4 9 C-1.63517472 7.8727078 -1.63517472 7.8727078 0 6 C0 5.01 0 4.02 0 3 C0 2.01 0 1.02 0 0 Z " fill="#C56CE1" transform="translate(177,280)"/>
<path d="M0 0 C2.0625 0.4375 2.0625 0.4375 4 1 C3.34 1.66 2.68 2.32 2 3 C1.70040028 4.90604831 1.70040028 4.90604831 1.75390434 7.11920357 C1.74992225 7.98706777 1.74594015 8.85493197 1.74183738 9.74909508 C1.74766307 10.70822458 1.75348875 11.66735407 1.75949097 12.6555481 C1.75778212 13.66997793 1.75607327 14.68440777 1.75431263 15.7295779 C1.75100148 19.15068094 1.76204814 22.57159062 1.77294922 25.99267578 C1.77351298 28.43628942 1.77319746 30.8799034 1.77206421 33.32351685 C1.77160782 38.59571982 1.77730421 43.86786187 1.78853989 49.14004898 C1.80477435 56.76279412 1.81000078 64.3855153 1.81251587 72.00827585 C1.81689621 84.37483417 1.83021448 96.74136615 1.84912109 109.10791016 C1.86747114 121.12288277 1.88163192 133.13784824 1.89013672 145.15283203 C1.89066217 145.89308149 1.89118761 146.63333094 1.89172898 147.3960122 C1.894339 151.10952056 1.89686643 154.82302897 1.89935279 158.53653741 C1.92009583 189.35771076 1.95547893 220.17885139 2 251 C1.01 251 0.02 251 -1 251 C-1.02278974 219.16850056 -1.04049785 187.33700344 -1.05106533 155.50549776 C-1.05231611 151.75146789 -1.05361042 147.99743804 -1.05493164 144.2434082 C-1.05519395 143.49601682 -1.05545626 142.74862544 -1.05572652 141.97858583 C-1.06008335 129.86098831 -1.06797097 117.74339551 -1.0771528 105.6258008 C-1.08648897 93.20130992 -1.09205553 80.77682153 -1.09408849 68.35232729 C-1.0954638 60.67956446 -1.09981478 53.00681497 -1.10791647 45.33405625 C-1.11380417 39.46052572 -1.11445905 33.58700213 -1.11310768 27.71346855 C-1.11338421 25.29666435 -1.11539191 22.87985968 -1.11920547 20.46305847 C-1.12413589 17.17909367 -1.12300071 13.8951873 -1.12025452 10.61122131 C-1.12316736 9.64139708 -1.1260802 8.67157285 -1.12908131 7.67236 C-1.12709026 6.79952006 -1.12509921 5.92668012 -1.12304783 5.02739048 C-1.12342755 4.26832954 -1.12380727 3.5092686 -1.1241985 2.72720581 C-1 1 -1 1 0 0 Z " fill="#CA87DD" transform="translate(36,124)"/>
<path d="M0 0 C2.31 0.66 4.62 1.32 7 2 C7 2.66 7 3.32 7 4 C7.71542969 4.11214844 8.43085938 4.22429687 9.16796875 4.33984375 C12.19115998 5.04456005 14.56322688 6.13287798 17.3125 7.5625 C18.19550781 8.01753906 19.07851562 8.47257812 19.98828125 8.94140625 C20.65214844 9.29074219 21.31601563 9.64007813 22 10 C22 10.66 22 11.32 22 12 C16.79760304 10.56745591 12.28632619 8.72062498 7.6796875 5.8828125 C6.79780762 5.34285645 5.91592773 4.80290039 5.00732422 4.24658203 C4.34490723 3.83520996 3.68249023 3.42383789 3 3 C2.97525678 8.05370732 2.95711947 13.10737926 2.94506836 18.16113281 C2.9400437 19.87988906 2.9332229 21.59864105 2.92456055 23.31738281 C2.9124132 25.78972426 2.90675297 28.26200912 2.90234375 30.734375 C2.89718246 31.50118591 2.89202118 32.26799683 2.88670349 33.05804443 C2.88633755 36.54849615 3.06247262 39.64274473 4 43 C2.68 43 1.36 43 0 43 C-0.16720754 37.03702281 -0.32780784 31.07391908 -0.48217773 25.1105957 C-0.53568003 23.08027305 -0.59101547 21.04999786 -0.64819336 19.01977539 C-0.7298755 16.10833986 -0.80505001 13.19679947 -0.87890625 10.28515625 C-0.90594131 9.3716188 -0.93297638 8.45808136 -0.96083069 7.51686096 C-1.01273771 5.34515498 -1.01189236 3.17229367 -1 1 C-0.67 0.67 -0.34 0.34 0 0 Z " fill="#AD6BCD" transform="translate(161,284)"/>
<path d="M0 0 C1.0621875 0.54269531 2.124375 1.08539063 3.21875 1.64453125 C4.64572284 2.36740565 6.07281246 3.09004957 7.5 3.8125 C8.19609375 4.16892578 8.8921875 4.52535156 9.609375 4.89257812 C14.31485367 7.26710208 19.03546301 9.22774974 24 11 C23.01 11.66 22.02 12.32 21 13 C19.845 12.38125 18.69 11.7625 17.5 11.125 C13.39686375 9.05877782 9.48299983 7.96064282 5 7 C5 7.66 5 8.32 5 9 C4.01 9.33 3.02 9.66 2 10 C1.85361791 13.99960899 1.76556677 17.99852058 1.6875 22 C1.64560547 23.12535156 1.60371094 24.25070312 1.56054688 25.41015625 C1.46426114 31.99610041 1.88156733 36.24945835 6.01489258 41.51171875 C6.33997803 42.00285156 6.66506348 42.49398437 7 43 C6.67 43.66 6.34 44.32 6 45 C1.0652639 39.17954203 -0.14775267 36.46625399 -0.09765625 28.7109375 C-0.0962413 27.89251373 -0.09482635 27.07408997 -0.09336853 26.23086548 C-0.0877629 23.61220675 -0.07520948 20.99363296 -0.0625 18.375 C-0.05748572 16.60156373 -0.05292269 14.82812613 -0.04882812 13.0546875 C-0.03779164 8.70309218 -0.02052325 4.3515605 0 0 Z " fill="#322561" transform="translate(163,286)"/>
<path d="M0 0 C8.25 0 16.5 0 25 0 C25 0.66 25 1.32 25 2 C25.88671387 1.93941406 26.77342773 1.87882812 27.68701172 1.81640625 C31.02294193 1.59009396 34.35904833 1.36682137 37.6953125 1.14550781 C39.13061378 1.04969245 40.56583817 0.95271709 42.00097656 0.85449219 C50.01036357 0.30712822 57.96629892 -0.12577223 66 0 C66 0.33 66 0.66 66 1 C43.85376436 3.7713725 22.15517652 3.60923215 0 1 C0 0.67 0 0.34 0 0 Z " fill="#42336E" transform="translate(216,291)"/>
<path d="M0 0 C0.99 0 1.98 0 3 0 C4.08794502 4.38566071 4.12897314 8.65582765 4.09765625 13.14453125 C4.0962413 13.91431808 4.09482635 14.68410492 4.09336853 15.47721863 C4.08779606 17.92235288 4.07524871 20.36739368 4.0625 22.8125 C4.05748144 24.47591013 4.05291915 26.1393217 4.04882812 27.80273438 C4.03783566 31.86852528 4.0205901 35.93424683 4 40 C2.68 40.66 1.36 41.32 0 42 C0 28.14 0 14.28 0 0 Z " fill="#AD6DCD" transform="translate(336,283)"/>
<path d="M0 0 C-7.59 4.29 -15.18 8.58 -23 13 C-23.33 12.01 -23.66 11.02 -24 10 C-23.34 9.34 -22.68 8.68 -22 8 C-22 6.68 -22 5.36 -22 4 C-17.60563789 3.14256349 -13.47427924 2.91051442 -9 3 C-9 2.34 -9 1.68 -9 1 C-5.19495213 -0.79682816 -4.29399165 -1.07349791 0 0 Z " fill="#C978E1" transform="translate(441,390)"/>
<path d="M0 0 C4.11193736 0.11798252 8.22363288 0.24221059 12.33520508 0.37231445 C13.73489199 0.41571434 15.13463359 0.45738564 16.53442383 0.49731445 C18.54261495 0.55489445 20.55061149 0.61914 22.55859375 0.68359375 C23.76829834 0.72025146 24.97800293 0.75690918 26.22436523 0.79467773 C29 1 29 1 30 2 C31.99782126 2.15825258 34.00088834 2.25119171 36.00390625 2.31640625 C37.21884766 2.35830078 38.43378906 2.40019531 39.68554688 2.44335938 C40.96494141 2.48267578 42.24433594 2.52199219 43.5625 2.5625 C44.84576172 2.60568359 46.12902344 2.64886719 47.45117188 2.69335938 C50.63399853 2.799848 53.81690674 2.90185962 57 3 C57 3.33 57 3.66 57 4 C37.76583994 4.31974946 19.00328764 4.48151835 0 1 C0 0.67 0 0.34 0 0 Z " fill="#9860BB" transform="translate(210,240)"/>
<path d="M0 0 C0.09922655 5.85322174 0.17163763 11.70594877 0.21972656 17.55981445 C0.23978337 19.54915908 0.26703585 21.53844518 0.30175781 23.52758789 C0.35053771 26.39484131 0.37302827 29.26131211 0.390625 32.12890625 C0.41127014 33.01147598 0.43191528 33.89404572 0.45318604 34.80335999 C0.45530994 40.71089547 -0.55055321 44.1629968 -4 49 C-4.99 49.495 -4.99 49.495 -6 50 C-6 48.35 -6 46.7 -6 45 C-4.68 44.34 -3.36 43.68 -2 43 C-2 30.46 -2 17.92 -2 5 C-3.65 4.67 -5.3 4.34 -7 4 C-2.25 0 -2.25 0 0 0 Z " fill="#332760" transform="translate(337,224)"/>
<path d="M0 0 C4.60042958 0.43400279 6.85259713 0.68994065 10 4 C14.0919944 6.48259074 18.21352106 8.40169013 23 9 C23 10.32 23 11.64 23 13 C25.97 13.99 28.94 14.98 32 16 C31.67 16.66 31.34 17.32 31 18 C27.02724696 16.52908578 23.48447373 14.6510734 19.82421875 12.5234375 C18.9691851 12.02827133 18.9691851 12.02827133 18.09687805 11.52310181 C16.29191648 10.47685993 14.48968598 9.42601425 12.6875 8.375 C11.45786036 7.66115152 10.22804438 6.94760669 8.99804688 6.234375 C5.99665008 4.49309126 2.99768333 2.74767064 0 1 C0 0.67 0 0.34 0 0 Z " fill="#C77FE0" transform="translate(125,427)"/>
<path d="M0 0 C0.14918422 5.12275667 0.25760412 10.24422831 0.32958984 15.36865234 C0.35961998 17.10878547 0.40045827 18.84876903 0.45263672 20.58837891 C0.92972222 36.91218676 0.92972222 36.91218676 -2.8984375 42.125 C-4.57592607 43.89474789 -5.82001868 44.91000934 -8 46 C-8 45.01 -8 44.02 -8 43 C-7.34 43 -6.68 43 -6 43 C-6 40.69 -6 38.38 -6 36 C-5.01 36.33 -4.02 36.66 -3 37 C-1.88134245 33.35341523 -1.79629108 29.8463849 -1.68359375 26.046875 C-1.66281265 25.38665344 -1.64203156 24.72643188 -1.62062073 24.04620361 C-1.55549853 21.94756985 -1.49641498 19.84881628 -1.4375 17.75 C-1.39427921 16.32290453 -1.3506638 14.89582095 -1.30664062 13.46875 C-1.19985589 9.97929278 -1.09848434 6.48970247 -1 3 C-2.65 3.33 -4.3 3.66 -6 4 C-1.125 0 -1.125 0 0 0 Z " fill="#342860" transform="translate(337,286)"/>
<path d="M0 0 C3.44094186 1.31246538 6.13540882 2.66588867 9 5 C6.69 4.67 4.38 4.34 2 4 C1.95064176 9.23273331 1.91430051 14.46533176 1.89013672 19.69824219 C1.88006569 21.47919067 1.86640815 23.26012257 1.84912109 25.04101562 C1.82492087 27.59769783 1.81352816 30.15416185 1.8046875 32.7109375 C1.79436493 33.50994476 1.78404236 34.30895203 1.77340698 35.13217163 C1.77300774 37.0895722 1.87758931 39.04643077 2 41 C2.66 41.66 3.32 42.32 4 43 C4.39764263 44.98821313 4.73775349 46.98944339 5 49 C0.07950131 44.23822707 0.07950131 44.23822707 -0.12025452 41.12704468 C-0.11803391 40.36759552 -0.11581329 39.60814636 -0.11352539 38.82568359 C-0.11344986 37.96494232 -0.11337433 37.10420105 -0.11329651 36.21737671 C-0.10813522 35.28712677 -0.10297394 34.35687683 -0.09765625 33.3984375 C-0.0962413 32.44683746 -0.09482635 31.49523743 -0.09336853 30.51480103 C-0.08776012 27.46816903 -0.07520619 24.42160987 -0.0625 21.375 C-0.05748608 19.31250106 -0.05292299 17.25000097 -0.04882812 15.1875 C-0.03778796 10.12497183 -0.02051767 5.06249827 0 0 Z " fill="#2F255E" transform="translate(163,224)"/>
<path d="M0 0 C-9.28601516 5.74699421 -18.62552087 11.39865147 -28 17 C-28.625 15.125 -28.625 15.125 -29 13 C-28.34 12.34 -27.68 11.68 -27 11 C-25.68 11 -24.36 11 -23 11 C-22.54625 10.360625 -22.0925 9.72125 -21.625 9.0625 C-20 7 -20 7 -16.8125 6.25 C-15.884375 6.1675 -14.95625 6.085 -14 6 C-14 5.34 -14 4.68 -14 4 C-12.865625 3.71125 -11.73125 3.4225 -10.5625 3.125 C-9.386875 2.75375 -8.21125 2.3825 -7 2 C-6.67 1.34 -6.34 0.68 -6 0 C-2.49056604 -1.24528302 -2.49056604 -1.24528302 0 0 Z " fill="#CA83DE" transform="translate(297,473)"/>
<path d="M0 0 C3.14919485 2.64358017 4.84301484 4.10677133 5.56762695 8.22973633 C5.54144287 9.41849365 5.51525879 10.60725098 5.48828125 11.83203125 C5.47216797 13.12431641 5.45605469 14.41660156 5.43945312 15.74804688 C5.39768274 17.10288157 5.35535809 18.45769928 5.3125 19.8125 C5.28740069 21.18680866 5.26459036 22.56116116 5.24414062 23.93554688 C5.18526461 27.29147976 5.1030642 30.6451809 5 34 C4.01 34.495 4.01 34.495 3 35 C3 25.1 3 15.2 3 5 C2.01 5 1.02 5 0 5 C0 3.35 0 1.7 0 0 Z " fill="#332B5F" transform="translate(332,171)"/>
<path d="M0 0 C-3.08735484 3.08735484 -6.93624802 3.71758124 -11.0625 4.9375 C-11.95195312 5.20183838 -12.84140625 5.46617676 -13.7578125 5.73852539 C-19.62443796 7.43206494 -25.49022568 8.8562047 -31.5 9.9375 C-32.54812866 10.12977173 -32.54812866 10.12977173 -33.61743164 10.32592773 C-36.99931103 10.88449138 -39.74401122 11.2043836 -43 10 C-42.36191406 9.86722656 -41.72382813 9.73445313 -41.06640625 9.59765625 C-40.24011719 9.42105469 -39.41382813 9.24445313 -38.5625 9.0625 C-37.73878906 8.88847656 -36.91507812 8.71445312 -36.06640625 8.53515625 C-34.02338796 8.19247006 -34.02338796 8.19247006 -33 7 C-30.68182911 6.67902249 -28.36220643 6.48779044 -26.03125 6.28125 C-24.00819407 6.20934163 -24.00819407 6.20934163 -23 5 C-19.4850657 4.20425161 -15.95317965 3.51612157 -12.41796875 2.81640625 C-0.50851844 -0.02825102 -0.50851844 -0.02825102 0 0 Z " fill="#B971D6" transform="translate(320,294)"/>
<path d="M0 0 C-0.33 1.32 -0.66 2.64 -1 4 C-2.32 4 -3.64 4 -5 4 C-5 4.99 -5 5.98 -5 7 C-5.71027344 7.18175781 -6.42054688 7.36351562 -7.15234375 7.55078125 C-8.53099609 7.92783203 -8.53099609 7.92783203 -9.9375 8.3125 C-11.31228516 8.67794922 -11.31228516 8.67794922 -12.71484375 9.05078125 C-13.46894531 9.36402344 -14.22304687 9.67726563 -15 10 C-15.33 10.99 -15.66 11.98 -16 13 C-17.65 12.67 -19.3 12.34 -21 12 C-17.15651589 8.74951058 -13.17601471 6.21217131 -8.8125 3.75 C-8.18408203 3.38648438 -7.55566406 3.02296875 -6.90820312 2.6484375 C-2.25352444 0 -2.25352444 0 0 0 Z " fill="#CB89DE" transform="translate(173,45)"/>
<path d="M0 0 C5.65460086 0.36877832 9.63113458 2.15314514 14.62109375 4.7890625 C17.3361105 6.17109073 20.07571063 7.15349518 23 8 C22.01 8.66 21.02 9.32 20 10 C18.845 9.38125 17.69 8.7625 16.5 8.125 C12.39686375 6.05877782 8.48299983 4.96064282 4 4 C4 4.66 4 5.32 4 6 C2.68 6.33 1.36 6.66 0 7 C0 4.69 0 2.38 0 0 Z " fill="#2C2C5C" transform="translate(164,289)"/>
<path d="M0 0 C-1.72672762 2.71536382 -3.44099089 5.02516873 -6 7 C-9.16995393 7.31957259 -11.93436707 6.8106896 -15 6 C-5.625 -1.76785714 -5.625 -1.76785714 0 0 Z M-12 7 C-11.34 7 -10.68 7 -10 7 C-9.67 7.99 -9.34 8.98 -9 10 C-9.99 10 -10.98 10 -12 10 C-12 9.01 -12 8.02 -12 7 Z " fill="#CE7BE5" transform="translate(57,115)"/>
<path d="M0 0 C1.18239258 0.07831055 1.18239258 0.07831055 2.38867188 0.15820312 C4.32201529 0.28709269 6.25482164 0.42399494 8.1875 0.5625 C8.1875 0.8925 8.1875 1.2225 8.1875 1.5625 C-0.7160633 2.60204991 -9.54582057 2.68178731 -18.5 2.625 C-19.89518067 2.61997028 -21.29036311 2.61541 -22.68554688 2.61132812 C-26.06124437 2.59964751 -29.43684826 2.58326833 -32.8125 2.5625 C-32.8125 2.2325 -32.8125 1.9025 -32.8125 1.5625 C-30.84216797 1.47162109 -30.84216797 1.47162109 -28.83203125 1.37890625 C-27.09634459 1.29446744 -25.36066802 1.20982112 -23.625 1.125 C-22.76068359 1.08568359 -21.89636719 1.04636719 -21.00585938 1.00585938 C-16.09375809 0.77717156 -16.09375809 0.77717156 -11.25 0 C-7.47978815 -0.67670469 -3.80425991 -0.27742717 0 0 Z " fill="#3E316A" transform="translate(269.8125,347.4375)"/>
<path d="M0 0 C2.83363811 0.62364257 5.66690959 1.24887814 8.5 1.875 C9.68722656 2.13603516 9.68722656 2.13603516 10.8984375 2.40234375 C15.95470933 3.52135473 20.98142181 4.72233445 26 6 C26 6.33 26 6.66 26 7 C24.35425434 7.02688151 22.70838587 7.04634123 21.0625 7.0625 C20.14597656 7.07410156 19.22945312 7.08570313 18.28515625 7.09765625 C16 7 16 7 15 6 C10.85723125 5.75266863 10.85723125 5.75266863 7 7 C6.34 6.67 5.68 6.34 5 6 C5 5.34 5 4.68 5 4 C2.525 3.01 2.525 3.01 0 2 C0 1.34 0 0.68 0 0 Z " fill="#BE70D9" transform="translate(187,222)"/>
<path d="M0 0 C4.7871428 0.57665391 8.25128824 2.64082996 12.3125 5.0625 C12.95767578 5.43955078 13.60285156 5.81660156 14.26757812 6.20507812 C15.84878152 7.13037493 17.4249146 8.06432681 19 9 C17.02 9.99 17.02 9.99 15 11 C15 10.34 15 9.68 15 9 C12.03 9 9.06 9 6 9 C6 7.35 6 5.7 6 4 C5.38125 3.71125 4.7625 3.4225 4.125 3.125 C2 2 2 2 0 0 Z " fill="#CC7EDE" transform="translate(324,44)"/>
<path d="M0 0 C0.33 0 0.66 0 1 0 C1.01401855 1.13429443 1.01401855 1.13429443 1.02832031 2.29150391 C1.082192 5.73665134 1.16580841 9.18046562 1.25 12.625 C1.26417969 13.81480469 1.27835938 15.00460938 1.29296875 16.23046875 C1.47768018 22.8431378 1.74562273 26.87772976 6 32 C6 32.99 6 33.98 6 35 C5.34 34.67 4.68 34.34 4 34 C4 33.34 4 32.68 4 32 C2.68 31.67 1.36 31.34 0 31 C0 20.77 0 10.54 0 0 Z " fill="#9566B9" transform="translate(162,178)"/>
<path d="M0 0 C2.31 0.33 4.62 0.66 7 1 C7 1.66 7 2.32 7 3 C7.99 3 8.98 3 10 3 C10.33 3.66 10.66 4.32 11 5 C11.99 5 12.98 5 14 5 C14.33 4.34 14.66 3.68 15 3 C16.65 3 18.3 3 20 3 C17.40008717 6.17767124 15.0827007 7.48038355 11 8 C2.00292113 4.00584226 2.00292113 4.00584226 0 0 Z " fill="#CA88DC" transform="translate(238,492)"/>
<path d="M0 0 C0.556875 0.226875 1.11375 0.45375 1.6875 0.6875 C1.30152985 3.48578356 0.88613427 4.5080884 -1.25 6.4375 C-3.3125 7.6875 -3.3125 7.6875 -5.3125 7.6875 C-5.3125 7.0275 -5.3125 6.3675 -5.3125 5.6875 C-6.3025 6.0175 -7.2925 6.3475 -8.3125 6.6875 C-8.125 4.875 -8.125 4.875 -7.3125 2.6875 C-3.3125 -0.44763514 -3.3125 -0.44763514 0 0 Z " fill="#C977E1" transform="translate(197.3125,31.3125)"/>
<path d="M0 0 C2.71329897 0.86031431 4.40863329 1.97772465 6.5625 3.8125 C4.2525 4.4725 1.9425 5.1325 -0.4375 5.8125 C-0.7675 5.1525 -1.0975 4.4925 -1.4375 3.8125 C-4.4075 4.4725 -7.3775 5.1325 -10.4375 5.8125 C-2.98550937 -0.22965457 -2.98550937 -0.22965457 0 0 Z " fill="#D087E2" transform="translate(250.4375,0.1875)"/>
<path d="M0 0 C1.65 0 3.3 0 5 0 C5.33 0.66 5.66 1.32 6 2 C5.67 2.66 5.34 3.32 5 4 C7.97 4.495 7.97 4.495 11 5 C11 5.33 11 5.66 11 6 C4.9981863 6.21824777 -0.19233704 5.5056904 -6 4 C-6 3.67 -6 3.34 -6 3 C-5.195625 2.87625 -4.39125 2.7525 -3.5625 2.625 C-2.716875 2.41875 -1.87125 2.2125 -1 2 C-0.67 1.34 -0.34 0.68 0 0 Z " fill="#B76CD7" transform="translate(209,298)"/>
<path d="M0 0 C0 0.99 0 1.98 0 3 C-8.04412976 7.66388375 -14.66574978 9.96689982 -24 10 C-21.21784173 8.55179114 -18.43883554 7.36963051 -15.48828125 6.30859375 C-14.64845703 6.00373047 -13.80863281 5.69886719 -12.94335938 5.38476562 C-11.17783418 4.7490717 -9.41220783 4.11365864 -7.64648438 3.47851562 C-6.39254883 3.0231543 -6.39254883 3.0231543 -5.11328125 2.55859375 C-3.96533081 2.14565063 -3.96533081 2.14565063 -2.79418945 1.72436523 C-1.0094677 1.13978997 -1.0094677 1.13978997 0 0 Z " fill="#40316D" transform="translate(329,290)"/>
<path d="M0 0 C4.29 0 8.58 0 13 0 C10.06489842 2.20132619 7.4339774 3.95504171 4.25 5.6875 C3.05117187 6.34298828 3.05117187 6.34298828 1.828125 7.01171875 C1.22484375 7.33785156 0.6215625 7.66398438 0 8 C0 5.36 0 2.72 0 0 Z " fill="#BD6DD9" transform="translate(169,161)"/>
<path d="M0 0 C-2.1217363 1.33878572 -4.24705188 2.67115476 -6.375 4 C-6.97828125 4.3815625 -7.5815625 4.763125 -8.203125 5.15625 C-12.7734375 8 -12.7734375 8 -15 8 C-16.125 4.25 -16.125 4.25 -15 2 C-14.01 2 -13.02 2 -12 2 C-12 2.66 -12 3.32 -12 4 C-11.01 4 -10.02 4 -9 4 C-9 3.34 -9 2.68 -9 2 C-8.01 2 -7.02 2 -6 2 C-6 1.34 -6 0.68 -6 0 C-3.50907189 -1.24546405 -2.58919267 -0.7767578 0 0 Z " fill="#CB7CDF" transform="translate(313,464)"/>
<path d="M0 0 C-1 2 -1 2 -4.0625 3.0625 C-11.3697151 4.94871203 -18.49901919 5.13833776 -26 5 C-26 4.67 -26 4.34 -26 4 C-22.60563644 3.32570033 -19.20929807 2.6619172 -15.8125 2 C-14.37293945 1.71382813 -14.37293945 1.71382813 -12.90429688 1.421875 C-11.97294922 1.24140625 -11.04160156 1.0609375 -10.08203125 0.875 C-8.80162964 0.62363281 -8.80162964 0.62363281 -7.49536133 0.3671875 C-4.95954897 -0.00595229 -2.55918603 -0.06412996 0 0 Z " fill="#AF6DCC" transform="translate(304,344)"/>
<path d="M0 0 C3.93053185 0.56549393 6.53407537 1.71382558 9.8125 3.9375 C10.60269531 4.46214844 11.39289063 4.98679687 12.20703125 5.52734375 C12.79871094 6.01332031 13.39039063 6.49929687 14 7 C14 7.66 14 8.32 14 9 C13.34 9 12.68 9 12 9 C12 8.34 12 7.68 12 7 C9.69 6.34 7.38 5.68 5 5 C4.67 5.66 4.34 6.32 4 7 C3.01 6.34 2.02 5.68 1 5 C1.33 3.68 1.66 2.36 2 1 C1.34 0.67 0.68 0.34 0 0 Z " fill="#CD82E1" transform="translate(400,88)"/>
<path d="M0 0 C1.2684375 0.433125 1.2684375 0.433125 2.5625 0.875 C6.02361041 2.00772704 9.49372557 3.01824316 13 4 C13 4.66 13 5.32 13 6 C13.99 6.66 14.98 7.32 16 8 C16 8.66 16 9.32 16 10 C12.35524815 8.63649571 9.08755513 6.998536 5.75 5 C4.44289062 4.2265625 4.44289062 4.2265625 3.109375 3.4375 C1 2 1 2 0 0 Z " fill="#C985DD" transform="translate(176,456)"/>
<path d="M0 0 C0 0.66 0 1.32 0 2 C-1.65 2.66 -3.3 3.32 -5 4 C-5 4.66 -5 5.32 -5 6 C-11.45 8.23269231 -11.45 8.23269231 -14.234375 7.0546875 C-14.81703125 6.70664063 -15.3996875 6.35859375 -16 6 C-14.23002526 5.18563132 -12.45898848 4.3735706 -10.6875 3.5625 C-9.70136719 3.11003906 -8.71523437 2.65757812 -7.69921875 2.19140625 C-2.73442623 0 -2.73442623 0 0 0 Z " fill="#342F65" transform="translate(192,158)"/>
<path d="M0 0 C0 0.33 0 0.66 0 1 C-3.22754814 1.67466746 -6.45726935 2.33830569 -9.6875 3 C-10.59951172 3.19078125 -11.51152344 3.3815625 -12.45117188 3.578125 C-13.33740234 3.75859375 -14.22363281 3.9390625 -15.13671875 4.125 C-16.35427856 4.37636719 -16.35427856 4.37636719 -17.59643555 4.6328125 C-20.10061865 5.0153713 -22.47075502 5.06298509 -25 5 C-22.79175561 2.72052192 -21.07518543 1.11471237 -17.83984375 0.76953125 C-16.27153491 0.79833158 -14.70349309 0.85067967 -13.13671875 0.92578125 C-8.73662306 1.07861821 -4.48318964 -0.10426022 0 0 Z " fill="#362C61" transform="translate(304,343)"/>
<path d="M0 0 C2.64 0 5.28 0 8 0 C8.33 0.66 8.66 1.32 9 2 C11.34386809 2.91031272 11.34386809 2.91031272 14.0625 3.625 C14.98160156 3.88539063 15.90070313 4.14578125 16.84765625 4.4140625 C17.55792969 4.60742188 18.26820313 4.80078125 19 5 C18.67 5.66 18.34 6.32 18 7 C11.89262558 5.23536928 5.92566493 3.30442525 0 1 C0 0.67 0 0.34 0 0 Z " fill="#AD6BCB" transform="translate(304,156)"/>
<path d="M0 0 C0 0.66 0 1.32 0 2 C-0.66 2 -1.32 2 -2 2 C-2 2.66 -2 3.32 -2 4 C-5.48554381 7.6307748 -9.2190722 7.60158935 -14 8 C-4.57142857 0 -4.57142857 0 0 0 Z " fill="#CE8CE2" transform="translate(118,77)"/>
<path d="M0 0 C7.16869301 0.67629179 7.16869301 0.67629179 10 4 C11.546875 5.0209375 11.546875 5.0209375 13.125 6.0625 C16 8 16 8 17 10 C12.97683781 8.51463956 9.38707358 6.60123107 5.6875 4.4375 C4.61886719 3.81746094 3.55023438 3.19742187 2.44921875 2.55859375 C1.64097656 2.04425781 0.83273438 1.52992188 0 1 C0 0.67 0 0.34 0 0 Z " fill="#C98CDC" transform="translate(125,427)"/>
<path d="M0 0 C3.79049707 1.42749981 7.27122456 3.16236542 10.8125 5.125 C12.27623047 5.93324219 12.27623047 5.93324219 13.76953125 6.7578125 C14.50558594 7.16773438 15.24164063 7.57765625 16 8 C15.67 8.66 15.34 9.32 15 10 C14.01 10 13.02 10 12 10 C12 9.34 12 8.68 12 8 C11.319375 7.7525 10.63875 7.505 9.9375 7.25 C6.43134917 5.75802092 3.28379632 3.93164489 0 2 C0 1.34 0 0.68 0 0 Z " fill="#CD8CDF" transform="translate(286,21)"/>
<path d="M0 0 C5.98511371 0.34302035 10.75117306 0.82307843 16 4 C12.11764181 5.49828872 9.56550712 4.43110582 5.75 3.0625 C4.67234375 2.68222656 3.5946875 2.30195313 2.484375 1.91015625 C1.66453125 1.60980469 0.8446875 1.30945313 0 1 C0 0.67 0 0.34 0 0 Z " fill="#3C2F6A" transform="translate(185,283)"/>
<path d="M0 0 C-0.33 0.99 -0.66 1.98 -1 3 C-1.99 3 -2.98 3 -4 3 C-4.33 4.32 -4.66 5.64 -5 7 C-5.99 7 -6.98 7 -8 7 C-8.33 7.99 -8.66 8.98 -9 10 C-9.99 10.33 -10.98 10.66 -12 11 C-10.11596591 6.37555269 -5.39413618 0 0 0 Z " fill="#3F326C" transform="translate(176,165)"/>
<path d="M0 0 C-1.95519384 1.17192047 -3.9142539 2.3373929 -5.875 3.5 C-6.96554687 4.1496875 -8.05609375 4.799375 -9.1796875 5.46875 C-12 7 -12 7 -14 7 C-14.33 6.01 -14.66 5.02 -15 4 C-13.02 3.67 -11.04 3.34 -9 3 C-9 2.34 -9 1.68 -9 1 C-5.47051709 -0.66670026 -3.71727674 -1.13583456 0 0 Z " fill="#CC88DF" transform="translate(441,390)"/>
<path d="M0 0 C1.39456452 0.00667256 2.78911118 0.01863093 4.18359375 0.03515625 C4.89451172 0.03966797 5.60542969 0.04417969 6.33789062 0.04882812 C8.09899388 0.06064761 9.86005411 0.07858362 11.62109375 0.09765625 C11.62109375 0.42765625 11.62109375 0.75765625 11.62109375 1.09765625 C9.41357527 1.43634402 7.20503464 1.76837314 4.99609375 2.09765625 C3.76632813 2.28328125 2.5365625 2.46890625 1.26953125 2.66015625 C-1.99550895 3.05168141 -5.09603076 3.17846549 -8.37890625 3.09765625 C-7.73953125 2.78828125 -7.10015625 2.47890625 -6.44140625 2.16015625 C-2.38178809 0.06883781 -2.38178809 0.06883781 0 0 Z " fill="#AA69C6" transform="translate(212.37890625,150.90234375)"/>
<path d="M0 0 C0.66 0.33 1.32 0.66 2 1 C2 2.98 2 4.96 2 7 C0.68 6.67 -0.64 6.34 -2 6 C-2.33 6.66 -2.66 7.32 -3 8 C-3.66 7.34 -4.32 6.68 -5 6 C-4.34 6 -3.68 6 -3 6 C-3 5.34 -3 4.68 -3 4 C-3.66 3.67 -4.32 3.34 -5 3 C-2.625 1.4375 -2.625 1.4375 0 0 Z " fill="#D17EE7" transform="translate(126,71)"/>
<path d="M0 0 C1.32 0.66 2.64 1.32 4 2 C2.58833114 2.98635837 1.17043816 3.96381255 -0.25 4.9375 C-1.43335938 5.75541016 -1.43335938 5.75541016 -2.640625 6.58984375 C-4.82636993 7.89622441 -6.5153801 8.54980511 -9 9 C-9 8.01 -9 7.02 -9 6 C-6.36 5.34 -3.72 4.68 -1 4 C-0.67 2.68 -0.34 1.36 0 0 Z " fill="#C784D8" transform="translate(322,454)"/>
<path d="M0 0 C1.51400391 0.01740234 1.51400391 0.01740234 3.05859375 0.03515625 C4.07050781 0.04417969 5.08242188 0.05320312 6.125 0.0625 C7.29869141 0.07990234 7.29869141 0.07990234 8.49609375 0.09765625 C8.49609375 0.42765625 8.49609375 0.75765625 8.49609375 1.09765625 C5.74771526 1.62872939 2.99797 2.14781506 0.24609375 2.66015625 C-0.53121094 2.81162109 -1.30851562 2.96308594 -2.109375 3.11914062 C-2.86347656 3.25771484 -3.61757813 3.39628906 -4.39453125 3.5390625 C-5.08579102 3.66998291 -5.77705078 3.80090332 -6.48925781 3.93579102 C-8.71678567 4.11475987 -10.37897587 3.74971822 -12.50390625 3.09765625 C-11.54677734 2.89849609 -11.54677734 2.89849609 -10.5703125 2.6953125 C-9.74402344 2.51871094 -8.91773438 2.34210938 -8.06640625 2.16015625 C-7.24269531 1.98613281 -6.41898437 1.81210937 -5.5703125 1.6328125 C-2.92897735 0.94876162 -2.85911823 0.11151007 0 0 Z " fill="#A568C6" transform="translate(289.50390625,300.90234375)"/>
<path d="M0 0 C3.96 1.98 7.92 3.96 12 6 C11.01 6.66 10.02 7.32 9 8 C7.67968405 7.43457996 6.3688699 6.84693528 5.0625 6.25 C3.96615234 5.76273437 3.96615234 5.76273437 2.84765625 5.265625 C1 4 1 4 0 0 Z " fill="#CE8DE1" transform="translate(424,101)"/>
<path d="M0 0 C3.08603789 0.10286793 5.76424114 0.40117967 8.75 1.125 C8.75 1.455 8.75 1.785 8.75 2.125 C5.45 2.785 2.15 3.445 -1.25 4.125 C-1.25 3.465 -1.25 2.805 -1.25 2.125 C-2.24 1.795 -3.23 1.465 -4.25 1.125 C-3.25 0.125 -3.25 0.125 0 0 Z " fill="#B76CD6" transform="translate(295.25,235.875)"/>
<path d="M0 0 C4.30764815 1.56641751 8.06171464 3.68336156 12 6 C8.19881294 7.26706235 6.6149628 6.57172296 3 5 C2.67 4.01 2.34 3.02 2 2 C1.34 2 0.68 2 0 2 C0 1.34 0 0.68 0 0 Z " fill="#CB8FDE" transform="translate(441,111)"/>
<path d="M0 0 C0.66 1.32 1.32 2.64 2 4 C-1.08809695 5.76462683 -2.23312136 6 -6 6 C-6 5.01 -6 4.02 -6 3 C-4.02 2.01 -2.04 1.02 0 0 Z " fill="#CC7EE1" transform="translate(206,25)"/>
<path d="M0 0 C0.99 0.33 1.98 0.66 3 1 C1.39805929 1.98280415 -0.20663742 2.96111717 -1.8125 3.9375 C-3.15248047 4.75541016 -3.15248047 4.75541016 -4.51953125 5.58984375 C-7 7 -7 7 -10 8 C-10 7.01 -10 6.02 -10 5 C-8.27473958 4.28385417 -6.54947917 3.56770833 -4.82421875 2.8515625 C-2.73466068 1.93193308 -2.73466068 1.93193308 0 0 Z " fill="#B570D2" transform="translate(333,223)"/>
<path d="M0 0 C1.32 0 2.64 0 4 0 C4 0.66 4 1.32 4 2 C4.763125 2.12375 5.52625 2.2475 6.3125 2.375 C9 3 9 3 12 5 C12 5.66 12 6.32 12 7 C7.69235185 5.43358249 3.93828536 3.31663844 0 1 C0 0.67 0 0.34 0 0 Z " fill="#CB87DC" transform="translate(156,445)"/>
<path d="M0 0 C0.12375 0.61875 0.2475 1.2375 0.375 1.875 C0.87197356 4.19120832 0.87197356 4.19120832 3 6 C-0.34373475 5.44271087 -3.03312999 4.64826111 -6 3 C-6 2.34 -6 1.68 -6 1 C-3 0 -3 0 0 0 Z " fill="#C87EDD" transform="translate(91,402)"/>
<path d="M0 0 C1.65 0.33 3.3 0.66 5 1 C-0.14285714 5.42857143 -0.14285714 5.42857143 -4 6 C-4 5.01 -4 4.02 -4 3 C-3.01 3 -2.02 3 -1 3 C-0.67 2.01 -0.34 1.02 0 0 Z " fill="#CC83E1" transform="translate(453,378)"/>
<path d="M0 0 C3.82669043 3.42388092 5.72278474 6.00724943 7 11 C3.78397182 8.63029503 1.35875408 6.82921605 0 3 C0 2.01 0 1.02 0 0 Z " fill="#382C67" transform="translate(163,320)"/>
<path d="M0 0 C-5.52626775 3.34484627 -7.48540102 4.0857665 -14 3 C-4.91666667 -1.89102564 -4.91666667 -1.89102564 0 0 Z " fill="#A669C8" transform="translate(312,286)"/>
<path d="M0 0 C4.95 0.99 9.9 1.98 15 3 C15 3.33 15 3.66 15 4 C4.27475338 4.56229448 4.27475338 4.56229448 0 1 C0 0.67 0 0.34 0 0 Z " fill="#AD6BCA" transform="translate(198,225)"/>
<path d="M0 0 C0.66 0 1.32 0 2 0 C6 5.29411765 6 5.29411765 6 9 C5.34 8.67 4.68 8.34 4 8 C4 7.34 4 6.68 4 6 C2.68 5.67 1.36 5.34 0 5 C0 3.35 0 1.7 0 0 Z " fill="#AE69C7" transform="translate(162,204)"/>
<path d="M0 0 C0.66 0.33 1.32 0.66 2 1 C1.67 1.66 1.34 2.32 1 3 C0.34 3 -0.32 3 -1 3 C-1 3.66 -1 4.32 -1 5 C-2.65 5 -4.3 5 -6 5 C-6 5.66 -6 6.32 -6 7 C-7.32 6.67 -8.64 6.34 -10 6 C-8.3811004 4.96951963 -6.75467511 3.95085322 -5.125 2.9375 C-4.22007812 2.36902344 -3.31515625 1.80054688 -2.3828125 1.21484375 C-1.20332031 0.61349609 -1.20332031 0.61349609 0 0 Z " fill="#D095DF" transform="translate(145,60)"/>
<path d="M0 0 C1.32 0.33 2.64 0.66 4 1 C3.01 1.495 3.01 1.495 2 2 C2.33 3.32 2.66 4.64 3 6 C0.08482708 4.92598892 -1.77810176 4.22189824 -4 2 C-2.68 2 -1.36 2 0 2 C0 1.34 0 0.68 0 0 Z " fill="#CB80E0" transform="translate(227,482)"/>
<path d="M0 0 C2.31 0 4.62 0 7 0 C7 0.99 7 1.98 7 3 C8.32 3.33 9.64 3.66 11 4 C9.4375 4.75 9.4375 4.75 7 5 C4.49713591 3.86915563 2.32992278 2.47860484 0 1 C0 0.67 0 0.34 0 0 Z " fill="#C987DC" transform="translate(209,476)"/>
<path d="M0 0 C5.94 2.475 5.94 2.475 12 5 C9 7 9 7 7 7 C7 6.34 7 5.68 7 5 C6.401875 4.87625 5.80375 4.7525 5.1875 4.625 C3 4 3 4 0 2 C0 1.34 0 0.68 0 0 Z " fill="#AE6CD0" transform="translate(175,216)"/>
<path d="M0 0 C4.37934119 0.51958285 8.68803391 1.05675742 13 2 C13 2.33 13 2.66 13 3 C9.37 3 5.74 3 2 3 C2 2.34 2 1.68 2 1 C1.34 0.67 0.68 0.34 0 0 Z " fill="#B670D6" transform="translate(197,288)"/>
<path d="M0 0 C-0.75 1.9375 -0.75 1.9375 -2 4 C-5.00243773 5.30105635 -6.92988563 4.84139118 -10 4 C-8.71086513 3.32845067 -7.41859796 2.66291141 -6.125 2 C-5.40570313 1.62875 -4.68640625 1.2575 -3.9453125 0.875 C-2 0 -2 0 0 0 Z " fill="#AE6CD0" transform="translate(328,215)"/>
<path d="M0 0 C1.9375 0.8125 1.9375 0.8125 4 2 C4.33 2.99 4.66 3.98 5 5 C1.25 6.125 1.25 6.125 -1 5 C-1 4.34 -1 3.68 -1 3 C-1.66 2.67 -2.32 2.34 -3 2 C-2.01 1.34 -1.02 0.68 0 0 Z " fill="#D27DE9" transform="translate(150,57)"/>
<path d="M0 0 C3.375 0.25 3.375 0.25 7 1 C8.4375 3.0625 8.4375 3.0625 9 5 C4.68607774 4.5206753 2.83430453 3.2542015 0 0 Z " fill="#C67ED7" transform="translate(238,492)"/>
<path d="M0 0 C-3.63 1.98 -7.26 3.96 -11 6 C-11 5.01 -11 4.02 -11 3 C-9.73581754 2.30034557 -8.46334598 1.61565237 -7.1875 0.9375 C-6.47980469 0.55464844 -5.77210938 0.17179687 -5.04296875 -0.22265625 C-3 -1 -3 -1 0 0 Z " fill="#C987DB" transform="translate(392,418)"/>
<path d="M0 0 C0 0.99 0 1.98 0 3 C-1.98 3.99 -3.96 4.98 -6 6 C-6 5.34 -6 4.68 -6 4 C-6.66 3.67 -7.32 3.34 -8 3 C-2.25 0 -2.25 0 0 0 Z " fill="#343067" transform="translate(330,228)"/>
<path d="M0 0 C-3.732388 3.57011026 -8.0949989 4.10913442 -13 5 C-10.74037349 0.48074698 -4.66953512 -0.42450319 0 0 Z " fill="#342962" transform="translate(320,218)"/>
<path d="M0 0 C4.40114397 0.50298788 6.71195019 2.08772731 10 5 C9.01 5.33 8.02 5.66 7 6 C6.01 5.34 5.02 4.68 4 4 C4 3.34 4 2.68 4 2 C2.68 2 1.36 2 0 2 C0 1.34 0 0.68 0 0 Z " fill="#CF86E2" transform="translate(264,9)"/>
<path d="M0 0 C-1.41377782 0.36552803 -2.83120576 0.71695495 -4.25 1.0625 C-5.03890625 1.25972656 -5.8278125 1.45695313 -6.640625 1.66015625 C-9.10394822 2.01497267 -10.65604132 1.76877544 -13 1 C-11.59054634 0.43983252 -10.1719969 -0.09748502 -8.75 -0.625 C-7.96109375 -0.92664063 -7.1721875 -1.22828125 -6.359375 -1.5390625 C-3.50082285 -2.09752136 -2.41040161 -1.53690745 0 0 Z " fill="#AC6BCB" transform="translate(320,222)"/>
<path d="M0 0 C-0.33 0.99 -0.66 1.98 -1 3 C-3.97 3 -6.94 3 -10 3 C-6.41600853 0.61067235 -4.26804999 0 0 0 Z " fill="#342F69" transform="translate(314,235)"/>
<path d="M0 0 C6.15234375 0.5859375 6.15234375 0.5859375 8 1 C8.33 1.66 8.66 2.32 9 3 C7.3125 3.75 7.3125 3.75 5 4 C2.25 2.0625 2.25 2.0625 0 0 Z " fill="#C985DD" transform="translate(199,470)"/>
<path d="M0 0 C-6.75 4 -6.75 4 -9 4 C-9 3.34 -9 2.68 -9 2 C-8.01 2 -7.02 2 -6 2 C-6 1.34 -6 0.68 -6 0 C-3.50907189 -1.24546405 -2.58919267 -0.7767578 0 0 Z " fill="#C686DA" transform="translate(313,464)"/>
<path d="M0 0 C-0.66 1.65 -1.32 3.3 -2 5 C-4.475 4.01 -4.475 4.01 -7 3 C-4.74624683 0.74624683 -3.20799182 0 0 0 Z " fill="#B06BD2" transform="translate(317,339)"/>
<path d="M0 0 C0.66 0.33 1.32 0.66 2 1 C-0.97 3.475 -0.97 3.475 -4 6 C-4.99 5.34 -5.98 4.68 -7 4 C-1.7265625 0.77734375 -1.7265625 0.77734375 0 0 Z " fill="#AC6ACC" transform="translate(325,334)"/>
<path d="M0 0 C1.32 0.33 2.64 0.66 4 1 C4 1.66 4 2.32 4 3 C2.02 3.99 0.04 4.98 -2 6 C-1.34 4.02 -0.68 2.04 0 0 Z " fill="#B66CD5" transform="translate(332,284)"/>
<path d="M0 0 C1.9375 1.125 1.9375 1.125 4 3 C4.75 6.1875 4.75 6.1875 5 9 C1.7457985 6.16569547 0.4793247 4.31392226 0 0 Z " fill="#3B2E6C" transform="translate(163,264)"/>
<path d="M0 0 C3.45925163 1.2491742 6.14693203 2.67527795 9 5 C4.545 4.01 4.545 4.01 0 3 C0 2.01 0 1.02 0 0 Z " fill="#3B2A65" transform="translate(163,224)"/>
<path d="M0 0 C3.95820859 0.56545837 6.6659053 1.80902348 10 4 C7 5 7 5 5.17578125 4.22265625 C3.45052083 3.1484375 1.72526042 2.07421875 0 1 C0 0.67 0 0.34 0 0 Z " fill="#CD8EE0" transform="translate(324,44)"/>
</svg>
