<?xml version="1.0" encoding="UTF-8"?>
<svg version="1.1" xmlns="http://www.w3.org/2000/svg" width="500" height="500">
<path d="M0 0 C2.6394043 1.23657227 2.6394043 1.23657227 5.32421875 2.81640625 C6.3385498 3.40736084 7.35288086 3.99831543 8.39794922 4.60717773 C9.48350098 5.25243408 10.56905273 5.89769043 11.6875 6.5625 C12.84345387 7.24044777 13.99987635 7.91759708 15.15673828 8.59399414 C18.77895567 10.71624155 22.3902757 12.85659157 26 15 C27.68488525 15.99918457 27.68488525 15.99918457 29.40380859 17.01855469 C33.85356047 19.65849261 38.30277244 22.2993155 42.7487793 24.94555664 C50.7840748 29.7182625 58.87469413 34.38320786 67 39 C76.26366578 44.2636073 85.46948768 49.61179793 94.625 55.0625 C107.67874419 62.83382462 120.82590029 70.43495151 134 78 C148.26004564 86.18863824 162.48772765 94.42417973 176.61303711 102.84350586 C177.61987549 103.44300049 178.62671387 104.04249512 179.6640625 104.66015625 C180.68452762 105.29527067 181.70499273 105.93038509 182.75638103 106.58474541 C186.0234625 108.53547069 189.37778049 110.0854861 192.85554981 111.62610054 C208.84585091 119.12640327 208.84585091 119.12640327 212.4116838 125.53849363 C214.64906716 132.68350915 214.30310968 140.06198027 214.15307617 147.46826172 C214.19056567 149.92726358 214.23819276 152.38612843 214.29512024 154.84475708 C214.40425255 160.80337312 214.40174838 166.75547824 214.34229191 172.71421133 C214.29607036 177.5618235 214.29615691 182.40742168 214.32839394 187.25513077 C214.3329377 187.94800538 214.33748146 188.64087998 214.34216291 189.35475079 C214.35155435 190.76284219 214.36103261 192.17093302 214.37059668 193.57902326 C214.45434243 206.7509125 214.38930958 219.9188545 214.27403555 233.09029485 C214.17910456 244.36134075 214.21872913 255.62546613 214.35522461 266.89599609 C214.51415307 280.02098979 214.58351812 293.14173988 214.51647741 306.26766407 C214.50958807 307.67085463 214.50283176 309.07404585 214.4962101 310.4772377 C214.49292962 311.16741227 214.48964915 311.85758683 214.48626926 312.56867578 C214.46950322 317.40262914 214.51649752 322.23349481 214.58827782 327.0668602 C215.18418558 370.3512902 215.18418558 370.3512902 208.30984879 378.85208893 C202.40479768 384.78705204 195.05355086 387.71930192 187.10757637 390.04111099 C182.99339159 391.31060403 179.80855944 393.19548958 176.1875 395.5 C174.12602125 396.66847024 172.0635534 397.83519757 170 399 C160.77519178 404.23865166 151.61308486 409.5682195 142.5 415 C132.80689305 420.77749797 123.05065043 426.42642661 113.23974609 432 C104.60413791 436.90861104 96.03290015 441.9140462 87.5 447 C78.28278138 452.49372874 69.01482555 457.88397969 59.6875 463.1875 C51.37676505 467.91309765 43.0957846 472.68157399 34.875 477.5625 C34.01221436 478.07208252 33.14942871 478.58166504 32.26049805 479.10668945 C27.78192606 481.75197142 23.31322493 484.41192069 18.8598938 487.09953308 C16.49300086 488.52297453 14.11777322 489.93209009 11.74078369 491.33859253 C10.03741806 492.35272247 8.34448748 493.38431458 6.65185547 494.41625977 C5.09168701 495.33556274 5.09168701 495.33556274 3.5 496.2734375 C2.5821875 496.82435059 1.664375 497.37526367 0.71875 497.94287109 C-2.665834 499.25889558 -4.52883249 498.9455288 -8 498 C-10.55200755 496.67791031 -12.94103361 495.32305563 -15.375 493.8125 C-16.89139009 492.89624612 -18.40835047 491.9809356 -19.92578125 491.06640625 C-20.74127441 490.57156738 -21.55676758 490.07672852 -22.39697266 489.56689453 C-27.08846743 486.74284525 -31.82841845 484.00183821 -36.5625 481.25 C-38.6290511 480.04582146 -40.69545572 478.84139152 -42.76171875 477.63671875 C-44.31318604 476.73252197 -44.31318604 476.73252197 -45.89599609 475.81005859 C-48.91731748 474.04821521 -51.93739749 472.28426522 -54.95703125 470.51953125 C-66.38021828 463.8453944 -77.82444983 457.20928684 -89.28857422 450.60571289 C-97.52969191 445.85585468 -105.7486691 441.06904959 -113.9609375 436.26953125 C-121.29283764 431.98777854 -128.64270807 427.73795309 -136 423.5 C-147.36463776 416.95270498 -158.69980184 410.35618441 -170.0234375 403.73828125 C-173.03513124 401.97948373 -176.04854184 400.22366394 -179.0625 398.46875 C-180.07812012 397.87715088 -181.09374023 397.28555176 -182.14013672 396.67602539 C-184.01127444 395.58618638 -185.88265569 394.49676528 -187.75439453 393.40795898 C-189.57956734 392.34435121 -191.39091129 391.2567203 -193.1889782 390.1479044 C-196.1518033 388.39300193 -199.19694673 387.01610224 -202.35141182 385.63860226 C-217.02251844 378.79710302 -217.02251844 378.79710302 -220.29385519 372.5155766 C-222.36625494 365.36504632 -222.0187236 357.98759523 -221.87841797 350.61352539 C-221.91154695 348.15145755 -221.95398514 345.68950015 -222.00497437 343.22773743 C-222.10221956 337.25758434 -222.09703204 331.29579792 -222.0399463 325.32579548 C-221.99554339 320.47062505 -221.99381389 315.61714832 -222.02182388 310.76186943 C-222.02577246 310.06828189 -222.02972103 309.37469434 -222.03378925 308.660089 C-222.04196866 307.25062469 -222.05023278 305.84116086 -222.05858065 304.43169754 C-222.13149625 291.24387281 -222.06853856 278.05937748 -221.95940436 264.87197792 C-221.86930329 253.5820349 -221.90039601 242.29766448 -222.01904297 231.00805664 C-222.15712493 217.86607996 -222.21597079 204.72749206 -222.15287125 191.58482927 C-222.14636718 190.18053548 -222.13997675 188.77624116 -222.13370132 187.37194633 C-222.13058869 186.68119536 -222.12747605 185.99044438 -222.12426909 185.27876155 C-222.10792365 180.43565582 -222.14763914 175.59491544 -222.20995712 170.75224495 C-222.29252013 164.21798728 -222.24673622 157.69290642 -222.11703873 151.15885735 C-222.08864223 148.77021092 -222.10056351 146.38067134 -222.15701294 143.99252319 C-222.47455237 129.28267721 -222.47455237 129.28267721 -219 123 C-212.97608402 117.11722046 -205.39765839 113.61544604 -197.7735579 110.24813926 C-194.3205445 108.69423567 -191.15516894 106.87321617 -187.91796875 104.9140625 C-186.00795766 103.81745546 -184.09780475 102.72109539 -182.1875 101.625 C-173.29053982 96.50800116 -164.44345946 91.31351795 -155.625 86.0625 C-145.8895012 80.26637084 -136.09110108 74.59672541 -126.24029541 69.00027466 C-117.60449787 64.09157649 -109.03313064 59.08597191 -100.5 54 C-91.3224219 48.53105465 -82.09750217 43.15850653 -72.8125 37.875 C-61.16903872 31.24905428 -49.57984274 24.53525304 -38.01904297 17.76611328 C-34.797076 15.88129126 -31.57268012 14.00068017 -28.34765625 12.12109375 C-26.70748535 11.16517334 -26.70748535 11.16517334 -25.03417969 10.18994141 C-22.93983934 8.96945965 -20.84544147 7.74907659 -18.75097656 6.52880859 C-17.80834961 5.97918457 -16.86572266 5.42956055 -15.89453125 4.86328125 C-15.06800049 4.38157471 -14.24146973 3.89986816 -13.38989258 3.40356445 C-10.94576084 2.01662031 -10.94576084 2.01662031 -8.5690918 0.25854492 C-5.1988467 -1.39246843 -3.57258549 -1.02144005 0 0 Z M-67 158 C-72.81104363 165.94925689 -72.71529619 174.42058712 -72.64697266 183.84765625 C-72.6537596 185.42895511 -72.66266875 187.01024605 -72.67352295 188.59152222 C-72.69619524 192.86025993 -72.68753039 197.12838919 -72.67162752 201.39713669 C-72.65890554 205.87943831 -72.67072604 210.36169031 -72.67855835 214.84399414 C-72.68763666 222.36907231 -72.67571491 229.89390454 -72.65185547 237.41894531 C-72.62464762 246.09990048 -72.63346307 254.78026835 -72.6609875 263.4612093 C-72.68372957 270.93501696 -72.68685381 278.40864856 -72.67379415 285.88247967 C-72.66602757 290.33728845 -72.66488063 294.79182182 -72.68147659 299.24661255 C-72.69599666 303.43629359 -72.68576357 307.62522273 -72.65700531 311.81482315 C-72.65043446 313.34577312 -72.65222313 314.87678716 -72.66331863 316.40771103 C-72.72074382 325.14100437 -72.33170391 332.70645915 -67 340 C-59.59979211 347.28493266 -50.8320692 349.46397397 -40.67578125 349.38818359 C-39.79159515 349.39344055 -38.90740906 349.39869751 -37.99642944 349.40411377 C-35.10160145 349.41721396 -32.20733266 349.40861127 -29.3125 349.3984375 C-27.28426001 349.4004611 -25.25602072 349.40337492 -23.2277832 349.40713501 C-18.98804765 349.41154485 -14.7485024 349.40517051 -10.50878906 349.39111328 C-5.09197336 349.37402233 0.32439631 349.38387069 5.74119568 349.40183067 C9.92609987 349.41270473 14.11089944 349.40920557 18.29580688 349.4014473 C20.29236912 349.3994553 22.28894105 349.40186916 24.28549194 349.40888596 C27.08250864 349.41656024 29.8788169 349.40481304 32.67578125 349.38818359 C33.89643784 349.39729263 33.89643784 349.39729263 35.14175415 349.40658569 C44.35713457 349.30579641 52.38506194 346.51189521 59 340 C64.81104363 332.05074311 64.71529619 323.57941288 64.64697266 314.15234375 C64.6537596 312.57104489 64.66266875 310.98975395 64.67352295 309.40847778 C64.69619524 305.13974007 64.68753039 300.87161081 64.67162752 296.60286331 C64.65890554 292.12056169 64.67072604 287.63830969 64.67855835 283.15600586 C64.68763666 275.63092769 64.67571491 268.10609546 64.65185547 260.58105469 C64.62464762 251.90009952 64.63346307 243.21973165 64.6609875 234.5387907 C64.68372957 227.06498304 64.68685381 219.59135144 64.67379415 212.11752033 C64.66602757 207.66271155 64.66488063 203.20817818 64.68147659 198.75338745 C64.69599666 194.56370641 64.68576357 190.37477727 64.65700531 186.18517685 C64.65043446 184.65422688 64.65222313 183.12321284 64.66331863 181.59228897 C64.72074382 172.85899563 64.33170391 165.29354085 59 158 C51.59979211 150.71506734 42.8320692 148.53602603 32.67578125 148.61181641 C31.79159515 148.60655945 30.90740906 148.60130249 29.99642944 148.59588623 C27.10160145 148.58278604 24.20733266 148.59138873 21.3125 148.6015625 C19.28426001 148.5995389 17.25602072 148.59662508 15.2277832 148.59286499 C10.98804765 148.58845515 6.7485024 148.59482949 2.50878906 148.60888672 C-2.90802664 148.62597767 -8.32439631 148.61612931 -13.74119568 148.59816933 C-17.92609987 148.58729527 -22.11089944 148.59079443 -26.29580688 148.5985527 C-28.29236912 148.6005447 -30.28894105 148.59813084 -32.28549194 148.59111404 C-35.08250864 148.58343976 -37.8788169 148.59518696 -40.67578125 148.61181641 C-41.48955231 148.60574371 -42.30332336 148.59967102 -43.14175415 148.59341431 C-52.35713457 148.69420359 -60.38506194 151.48810479 -67 158 Z " fill="#5271FE" transform="translate(254,1)"/>
<path d="M0 0 C0.66 0.33 1.32 0.66 2 1 C1.99631283 2.2856677 1.99262566 3.57133539 1.98882675 4.89596272 C1.90225096 35.39474559 1.83626587 65.89349538 1.79573868 96.39237158 C1.79073568 100.14382411 1.78555841 103.89527638 1.78027344 107.64672852 C1.7792242 108.39359528 1.77817495 109.14046204 1.77709392 109.90996113 C1.75967456 122.01331221 1.72812849 134.11658752 1.69138882 146.21989361 C1.6540219 158.63308959 1.63177317 171.04624581 1.62364602 183.45949572 C1.61814939 191.12312743 1.60077056 198.786545 1.56833413 206.45011082 C1.54474983 212.32019986 1.54216939 218.19017818 1.54756927 224.06031609 C1.54646477 226.4730677 1.53845471 228.88582708 1.5231781 231.29853058 C1.50339955 234.58208064 1.50801683 237.86469994 1.51898193 241.14826965 C1.50733057 242.1122682 1.4956792 243.07626675 1.48367476 244.06947738 C1.5053045 246.45081419 1.54337434 248.66290993 2 251 C3.87170961 253.03294806 3.87170961 253.03294806 6 254 C6 254.66 6 255.32 6 256 C0.125 254.125 0.125 254.125 -1 253 C-1.09725103 251.65090612 -1.12555393 250.29676262 -1.12584114 248.94416809 C-1.12844889 248.06497806 -1.13105664 247.18578802 -1.13374341 246.27995586 C-1.13151268 245.30303185 -1.12928196 244.32610785 -1.12698364 243.31958008 C-1.12854363 242.29037602 -1.13010362 241.26117197 -1.13171089 240.20077991 C-1.13572573 236.72368281 -1.13252937 233.24662874 -1.12939453 229.76953125 C-1.13074836 227.28827895 -1.13252818 224.80702686 -1.13470459 222.32577515 C-1.13880503 216.26892951 -1.1381856 210.21210101 -1.13529195 204.15525603 C-1.13303812 199.2349015 -1.13272531 194.31455045 -1.13381577 189.39419556 C-1.133969 188.69522874 -1.13412223 187.99626192 -1.13428011 187.27611428 C-1.13459982 185.85639755 -1.13492403 184.43668081 -1.1352527 183.01696408 C-1.13810764 169.68872102 -1.13482025 156.36048483 -1.12945233 143.03224289 C-1.12498428 131.5836663 -1.12576021 120.13509985 -1.13037109 108.68652344 C-1.13571661 95.40758821 -1.13783295 82.12865901 -1.13475883 68.84972286 C-1.13444026 67.43508339 -1.13412589 66.02044392 -1.13381577 64.60580444 C-1.13358435 63.56162431 -1.13358435 63.56162431 -1.13334826 62.49634963 C-1.13248304 57.57907741 -1.1339461 52.66180899 -1.13629532 47.74453735 C-1.13938469 41.13234522 -1.13720088 34.52016935 -1.13140106 27.90797806 C-1.13007272 25.47343605 -1.13046882 23.03889243 -1.13266373 20.60435104 C-1.13537234 17.29635173 -1.13199765 13.98841517 -1.12698364 10.68041992 C-1.12921436 9.70349591 -1.13144509 8.7265719 -1.13374341 7.72004414 C-1.13113566 6.8408541 -1.12852791 5.96166407 -1.12584114 5.05583191 C-1.12567879 4.29123752 -1.12551644 3.52664312 -1.12534916 2.7388792 C-1 1 -1 1 0 0 Z " fill="#7687E6" transform="translate(36,123)"/>
<path d="M0 0 C1.29292969 -0.01224609 2.58585937 -0.02449219 3.91796875 -0.03710938 C5.15933594 -0.03904297 6.40070313 -0.04097656 7.6796875 -0.04296875 C8.81905762 -0.04707764 9.95842773 -0.05118652 11.13232422 -0.05541992 C14.05540928 0.18185122 15.70702841 0.56947223 18.125 2.1875 C19.52435013 4.98620027 19.37765405 7.09248792 19.125 10.1875 C17.57993534 12.22417615 16.40353844 13.04823078 14.125 14.1875 C9.50468468 14.43299809 4.87609643 14.37270758 0.25 14.375 C-1.04292969 14.38724609 -2.33585937 14.39949219 -3.66796875 14.41210938 C-4.90933594 14.41404297 -6.15070313 14.41597656 -7.4296875 14.41796875 C-8.56905762 14.42207764 -9.70842773 14.42618652 -10.88232422 14.43041992 C-13.80540928 14.19314878 -15.45702841 13.80552777 -17.875 12.1875 C-19.27435013 9.38879973 -19.12765405 7.28251208 -18.875 4.1875 C-14.35669974 -1.76844125 -6.73572372 0.00333782 0 0 Z " fill="#5271FB" transform="translate(249.875,317.8125)"/>
<path d="M0 0 C0.99 0.33 1.98 0.66 3 1 C3.11398947 33.0522128 3.20251025 65.10436809 3.25532665 97.15673612 C3.26158041 100.93823132 3.26805199 104.71972611 3.2746582 108.5012207 C3.27596976 109.25406869 3.27728131 110.00691669 3.2786326 110.78257825 C3.30040696 122.98294937 3.33983959 135.18320305 3.38576398 147.38350443 C3.43247228 159.8961389 3.46028345 172.40871174 3.47044247 184.92142981 C3.47731338 192.64653179 3.49903717 200.37130186 3.53958233 208.0963017 C3.56906227 214.01340416 3.57228839 219.930335 3.56553841 225.8475132 C3.56691906 228.27962289 3.5769321 230.71174463 3.59602737 233.14377975 C3.62075097 236.45377123 3.61498 239.76231999 3.60127258 243.07234192 C3.62311889 244.53001259 3.62311889 244.53001259 3.64540654 246.01713115 C3.61799839 248.45032319 3.5622906 250.63288703 3 253 C0.54801151 255.15511618 -0.74070895 256 -4 256 C-4 255.34 -4 254.68 -4 254 C-3.34 254 -2.68 254 -2 254 C-2 253.34 -2 252.68 -2 252 C-0.68 252 0.64 252 2 252 C1.89533431 220.32991526 1.7856361 188.65985301 1.66888306 156.98981069 C1.65511299 153.25337979 1.64138597 149.51694873 1.62768555 145.78051758 C1.62495724 145.03664143 1.62222894 144.29276528 1.61941796 143.52634744 C1.57530744 131.47154415 1.53468603 119.41673149 1.49534739 107.3619118 C1.45492402 94.99841726 1.41076664 82.63494016 1.36312145 70.27147132 C1.33382512 62.63864954 1.30746358 55.00582909 1.28482103 47.37298463 C1.26716585 41.52639945 1.24432296 35.67984189 1.21950912 29.83328247 C1.21013109 27.4302258 1.20245853 25.0271618 1.19658089 22.62409401 C1.18833252 19.353948 1.17405934 16.0838832 1.15821838 12.81376648 C1.15724028 11.85365888 1.15626217 10.89355128 1.15525442 9.90434951 C1.14977998 9.03101086 1.14430554 8.15767222 1.1386652 7.25786877 C1.13467814 6.12497316 1.13467814 6.12497316 1.13061053 4.96919078 C1.06913275 2.78614974 1.06913275 2.78614974 0 0 Z " fill="#778AD9" transform="translate(462,123)"/>
<path d="M0 0 C0.66 0 1.32 0 2 0 C2.042721 1.66611905 2.04063832 3.33382885 2 5 C1.67 5.33 1.34 5.66 1 6 C0.8909311 8.04994788 0.85308745 10.10369316 0.84178162 12.1565094 C0.83437465 13.13171827 0.83437465 13.13171827 0.82681805 14.12662834 C0.81137193 16.32082569 0.80306333 18.51499363 0.79467773 20.70922852 C0.78510479 22.27586123 0.77509506 23.84249132 0.76467896 25.40911865 C0.73756056 29.67543563 0.71658868 33.94176375 0.69667697 38.20811963 C0.67486003 42.66179276 0.64745042 47.11543129 0.62062073 51.56907654 C0.57063561 60.00864934 0.52571845 68.44824129 0.48259836 76.88785166 C0.43327561 86.49351901 0.37833914 96.09915166 0.32291877 105.70478547 C0.20900943 125.46982466 0.10218999 145.23489697 0 165 C-0.33 165 -0.66 165 -1 165 C-1.02334046 143.92963777 -1.04098483 122.85927767 -1.05181217 101.78890514 C-1.05697268 92.00599422 -1.06401074 82.22309132 -1.07543945 72.44018555 C-1.08539374 63.91532505 -1.09185521 55.39047037 -1.09408849 46.86560422 C-1.09539433 42.35003873 -1.0984722 37.83448985 -1.10573006 33.31892967 C-1.112502 29.0713992 -1.11461455 24.82389225 -1.11310768 20.57635689 C-1.11338348 19.01504768 -1.11538166 17.45373771 -1.11920547 15.89243317 C-1.12416103 13.76522961 -1.12299136 11.63811554 -1.12025452 9.51091003 C-1.12117631 8.31903171 -1.1220981 7.12715338 -1.12304783 5.89915752 C-1 3 -1 3 0 0 Z " fill="#5F75DA" transform="translate(181,164)"/>
<path d="M0 0 C1.29292969 -0.01224609 2.58585937 -0.02449219 3.91796875 -0.03710938 C5.15933594 -0.03904297 6.40070313 -0.04097656 7.6796875 -0.04296875 C8.81905762 -0.04707764 9.95842773 -0.05118652 11.13232422 -0.05541992 C14.05540928 0.18185122 15.70702841 0.56947223 18.125 2.1875 C19.52435013 4.98620027 19.37765405 7.09248792 19.125 10.1875 C17.57993534 12.22417615 16.40353844 13.04823078 14.125 14.1875 C9.50468468 14.43299809 4.87609643 14.37270758 0.25 14.375 C-1.04292969 14.38724609 -2.33585937 14.39949219 -3.66796875 14.41210938 C-4.90933594 14.41404297 -6.15070313 14.41597656 -7.4296875 14.41796875 C-8.56905762 14.42207764 -9.70842773 14.42618652 -10.88232422 14.43041992 C-13.80540928 14.19314878 -15.45702841 13.80552777 -17.875 12.1875 C-19.27435013 9.38879973 -19.12765405 7.28251208 -18.875 4.1875 C-14.35669974 -1.76844125 -6.73572372 0.00333782 0 0 Z M-16.875 4.1875 C-17.375 7.1875 -17.375 7.1875 -16.875 10.1875 C-13.31804889 12.55880074 -11.77777444 12.43318527 -7.5625 12.41796875 C-6.32242188 12.41603516 -5.08234375 12.41410156 -3.8046875 12.41210938 C-2.50789063 12.39986328 -1.21109375 12.38761719 0.125 12.375 C2.07019531 12.3740332 2.07019531 12.3740332 4.0546875 12.37304688 C10.69518306 12.49283319 10.69518306 12.49283319 17.125 11.1875 C17.125 8.8775 17.125 6.5675 17.125 4.1875 C13.29271394 2.4103358 10.26607521 1.93097508 6.0546875 1.921875 C4.91128906 1.91929687 3.76789063 1.91671875 2.58984375 1.9140625 C1.40519531 1.92179687 0.22054687 1.92953125 -1 1.9375 C-2.19238281 1.92976563 -3.38476562 1.92203125 -4.61328125 1.9140625 C-6.32451172 1.91792969 -6.32451172 1.91792969 -8.0703125 1.921875 C-9.63289795 1.92525879 -9.63289795 1.92525879 -11.22705078 1.92871094 C-14.10412173 1.99998173 -14.10412173 1.99998173 -16.875 4.1875 Z " fill="#8495E6" transform="translate(249.875,317.8125)"/>
<path d="M0 0 C0.89739899 -0.00274933 1.79479797 -0.00549866 2.71939087 -0.0083313 C4.18458664 0.00245453 4.18458664 0.00245453 5.67938232 0.01345825 C6.71384491 0.0131662 7.7483075 0.01287415 8.81411743 0.01257324 C12.23380924 0.01396672 15.65328325 0.029529 19.07293701 0.04519653 C21.44376506 0.04892659 23.81459466 0.0517736 26.1854248 0.05377197 C32.42600763 0.06140896 38.6664974 0.08105811 44.90704346 0.10317993 C51.2748285 0.12363689 57.64262858 0.13277338 64.01043701 0.14285278 C76.50526957 0.16430385 89.00003305 0.19844068 101.49481201 0.24050903 C101.49481201 0.90050903 101.49481201 1.56050903 101.49481201 2.24050903 C102.81481201 2.57050903 104.13481201 2.90050903 105.49481201 3.24050903 C102.62480477 4.38851193 101.42355805 4.21835536 98.40905762 3.28111267 C94.06625115 1.9809012 89.93613367 1.95219855 85.42938232 1.96585083 C84.10836014 1.95818443 84.10836014 1.95818443 82.76065063 1.95036316 C79.8646759 1.93652462 76.96894078 1.93742003 74.07293701 1.93972778 C72.04662997 1.93583687 70.02032374 1.93150138 67.99401855 1.92674255 C63.75076655 1.91929203 59.50759776 1.91956255 55.26434326 1.92483521 C49.84993001 1.93061918 44.43586002 1.91371894 39.02150345 1.89049053 C34.83652788 1.87569312 30.65163376 1.8748898 26.46663666 1.87800026 C24.47172111 1.87748977 22.47680067 1.87230357 20.48191071 1.86218834 C5.73220643 1.70084625 5.73220643 1.70084625 -8.50518799 5.24050903 C-8.50518799 4.25050903 -8.50518799 3.26050903 -8.50518799 2.24050903 C-5.53354746 0.53722253 -3.41421709 -0.00809056 0 0 Z " fill="#6278E1" transform="translate(201.50518798828125,148.75949096679688)"/>
<path d="M0 0 C0.99 0.495 0.99 0.495 2 1 C-0.48695868 4.73043802 -2.20093369 5.60973504 -6.52432251 6.54759216 C-10.99003983 7.12886747 -15.36255764 7.13122931 -19.86083984 7.11352539 C-20.83707306 7.11367142 -21.81330627 7.11381744 -22.81912231 7.1139679 C-26.03308363 7.11327345 -29.24698636 7.10550297 -32.4609375 7.09765625 C-34.69438648 7.09579041 -36.92783587 7.09436729 -39.1612854 7.09336853 C-45.03026465 7.08955644 -50.89921903 7.07973733 -56.76818848 7.06866455 C-62.76082015 7.0584223 -68.75345585 7.05386488 -74.74609375 7.04882812 C-86.49740674 7.03811388 -98.2487013 7.02105317 -110 7 C-110.33 6.34 -110.66 5.68 -111 5 C-109.16955894 5.00999275 -109.16955894 5.00999275 -107.30213928 5.02018738 C-95.78222953 5.08109549 -84.26235261 5.12601925 -72.74231815 5.15543652 C-66.82024976 5.17106881 -60.89831174 5.19226276 -54.97631836 5.22631836 C-49.25750389 5.25899842 -43.53881454 5.27687133 -37.81991386 5.28463173 C-35.64191151 5.2901597 -33.46391573 5.30095442 -31.28596687 5.31719017 C-28.22703566 5.33907913 -25.16861652 5.34196211 -22.10961914 5.34057617 C-21.21625351 5.351362 -20.32288788 5.36214783 -19.40245056 5.3732605 C-12.22246187 5.33823429 -6.02842675 4.01895117 0 0 Z " fill="#6076DF" transform="translate(308,344)"/>
<path d="M0 0 C-1.47692308 4.67692308 -1.47692308 4.67692308 -4.125 6.3125 C-4.74375 6.539375 -5.3625 6.76625 -6 7 C-6 6.34 -6 5.68 -6 5 C-6.66 5 -7.32 5 -8 5 C-8 5.66 -8 6.32 -8 7 C-8.66 7 -9.32 7 -10 7 C-10.165 7.639375 -10.33 8.27875 -10.5 8.9375 C-12 11 -12 11 -13.9140625 11.48828125 C-15.93575155 11.7275978 -17.96841939 11.86893028 -20 12 C-20 13.32 -20 14.64 -20 16 C-20.99 16.33 -21.98 16.66 -23 17 C-23.66 17.66 -24.32 18.32 -25 19 C-25 18.34 -25 17.68 -25 17 C-26.32 16.67 -27.64 16.34 -29 16 C-25.19472063 13.71576924 -21.38608989 11.4372676 -17.57421875 9.1640625 C-16.27737803 8.3895965 -14.98147383 7.6135601 -13.68652344 6.8359375 C-11.82729928 5.71983357 -9.96480363 4.60938145 -8.1015625 3.5 C-6.98088379 2.8296875 -5.86020508 2.159375 -4.70556641 1.46875 C-2 0 -2 0 0 0 Z " fill="#869BEF" transform="translate(243,4)"/>
<path d="M0 0 C4.58328022 -0.05802751 9.16646604 -0.09360593 13.75 -0.125 C15.05195313 -0.14175781 16.35390625 -0.15851563 17.6953125 -0.17578125 C18.94570312 -0.18222656 20.19609375 -0.18867188 21.484375 -0.1953125 C22.63647461 -0.20578613 23.78857422 -0.21625977 24.97558594 -0.22705078 C27.92418554 -0.00569159 29.56665687 0.36413304 32 2 C33.39935013 4.79870027 33.25265405 6.90498792 33 10 C31.625 11.875 31.625 11.875 30 13 C29.34 13 28.68 13 28 13 C28 12.34 28 11.68 28 11 C28.99 11 29.98 11 31 11 C30.67 8.69 30.34 6.38 30 4 C28.68 3.67 27.36 3.34 26 3 C26 2.34 26 1.68 26 1 C17.42 1 8.84 1 0 1 C0 0.67 0 0.34 0 0 Z " fill="#A7B6F1" transform="translate(236,318)"/>
<path d="M0 0 C5.34844008 0.53484401 9.35796103 2.46690767 14 5 C14 5.66 14 6.32 14 7 C14.7425 7.12375 15.485 7.2475 16.25 7.375 C18.80141485 7.95486701 20.7267573 8.73708739 23 10 C20.02363643 10.97944232 17.86661563 11.34802376 14.91113281 10.16113281 C12.59459093 8.89004659 10.35840071 7.5369635 8.125 6.125 C7.34125 5.65191406 6.5575 5.17882812 5.75 4.69140625 C1.69751449 2.21331842 1.69751449 2.21331842 0 1 C0 0.67 0 0.34 0 0 Z " fill="#8298EC" transform="translate(231,489)"/>
<path d="M0 0 C3.40202433 1.28924356 6.50564554 2.7652076 9.64453125 4.6015625 C10.48564453 5.09140625 11.32675781 5.58125 12.19335938 6.0859375 C13.05767578 6.59382813 13.92199219 7.10171875 14.8125 7.625 C15.69615234 8.140625 16.57980469 8.65625 17.49023438 9.1875 C19.66194789 10.45531114 21.8317818 11.72622348 24 13 C23.34 13.66 22.68 14.32 22 15 C22 14.34 22 13.68 22 13 C20.948125 12.8453125 20.948125 12.8453125 19.875 12.6875 C16.60862353 11.90640997 13.9528148 10.57941257 11 9 C11 8.34 11 7.68 11 7 C10.01 7 9.02 7 8 7 C8 6.34 8 5.68 8 5 C6.35 5 4.7 5 3 5 C3 4.34 3 3.68 3 3 C2.01 2.67 1.02 2.34 0 2 C0 1.34 0 0.68 0 0 Z " fill="#8B9DED" transform="translate(398,86)"/>
<path d="M0 0 C0.33 0 0.66 0 1 0 C1.12357051 4.92951281 1.21432177 9.85812532 1.2746582 14.78881836 C1.29980792 16.46606141 1.33393259 18.1431948 1.37719727 19.82006836 C1.4378346 22.23058085 1.46620284 24.63964552 1.48828125 27.05078125 C1.51408768 27.80087967 1.5398941 28.55097809 1.56648254 29.32380676 C1.56762695 31.4465332 1.56762695 31.4465332 1 35 C-1.41857305 37.00766355 -2.83696278 38 -6 38 C-6 37.34 -6 36.68 -6 36 C-5.34 36 -4.68 36 -4 36 C-4 35.34 -4 34.68 -4 34 C-2.68 34 -1.36 34 0 34 C0 22.78 0 11.56 0 0 Z " fill="#7889D9" transform="translate(464,341)"/>
<path d="M0 0 C0 0.66 0 1.32 0 2 C-0.99 2 -1.98 2 -3 2 C-3 2.66 -3 3.32 -3 4 C-3.66 4 -4.32 4 -5 4 C-5.33 4.99 -5.66 5.98 -6 7 C-9.71316711 9.8644432 -12.36574638 10.32332002 -17 10 C-14.38772848 7.04185281 -11.33429693 5.28123892 -7.9375 3.3125 C-6.87402344 2.68988281 -5.81054688 2.06726562 -4.71484375 1.42578125 C-2 0 -2 0 0 0 Z " fill="#8799EF" transform="translate(176,43)"/>
<path d="M0 0 C-0.33 1.32 -0.66 2.64 -1 4 C-1.99 4 -2.98 4 -4 4 C-4.33 4.99 -4.66 5.98 -5 7 C-8.93275129 8.36133698 -12.90892832 9.25616878 -17 10 C-14.38772848 7.04185281 -11.33429693 5.28123892 -7.9375 3.3125 C-6.87402344 2.68988281 -5.81054688 2.06726563 -4.71484375 1.42578125 C-2 0 -2 0 0 0 Z " fill="#8598ED" transform="translate(200,29)"/>
<path d="M0 0 C0.66 0.33 1.32 0.66 2 1 C1.67 1.66 1.34 2.32 1 3 C0.34 3 -0.32 3 -1 3 C-1 3.66 -1 4.32 -1 5 C-3.99308281 7.76284567 -7.07192042 9.01798011 -11 10 C-13.1875 9.546875 -13.1875 9.546875 -15 9 C-12.54732365 7.46931512 -10.08866106 5.95031377 -7.625 4.4375 C-6.92632812 3.99986328 -6.22765625 3.56222656 -5.5078125 3.11132812 C-3.70814097 2.01249022 -1.85677657 0.99932133 0 0 Z " fill="#8999EF" transform="translate(153,55)"/>
<path d="M0 0 C4.18140256 1.39380085 7.57203831 3.57572305 11.1875 6.0625 C9.3203125 6.65234375 9.3203125 6.65234375 7.1875 7.0625 C6.48625 6.588125 5.785 6.11375 5.0625 5.625 C0.85164031 3.3364893 -3.11613654 3.81628289 -7.8125 4.0625 C-3.71187974 0.08248622 -3.71187974 0.08248622 0 0 Z " fill="#8C9EF1" transform="translate(250.8125,-0.0625)"/>
<path d="M0 0 C0 1.98 0 3.96 0 6 C-3.77545388 4.90931332 -6.47043472 4.0916909 -9 1 C-3.375 -1.125 -3.375 -1.125 0 0 Z " fill="#7389F4" transform="translate(135,427)"/>
<path d="M0 0 C0 0.66 0 1.32 0 2 C-0.99 2 -1.98 2 -3 2 C-3 3.65 -3 5.3 -3 7 C-6.47823115 8.15941038 -8.45895578 7.70820884 -12 7 C-3.55172414 0 -3.55172414 0 0 0 Z " fill="#8096F2" transform="translate(126,72)"/>
<path d="M0 0 C0 0.66 0 1.32 0 2 C-0.66 2 -1.32 2 -2 2 C-2.33 3.32 -2.66 4.64 -3 6 C-5.31 6.66 -7.62 7.32 -10 8 C-10.66 7.34 -11.32 6.68 -12 6 C-10.37829621 4.99466333 -8.75252763 3.99588093 -7.125 3 C-5.76761719 2.1646875 -5.76761719 2.1646875 -4.3828125 1.3125 C-2 0 -2 0 0 0 Z " fill="#8395EF" transform="translate(114,79)"/>
<path d="M0 0 C0.66 0.33 1.32 0.66 2 1 C2 1.66 2 2.32 2 3 C2.66 3.33 3.32 3.66 4 4 C2.3811004 5.03048037 0.75467511 6.04914678 -0.875 7.0625 C-1.77992188 7.63097656 -2.68484375 8.19945312 -3.6171875 8.78515625 C-4.40351563 9.18605469 -5.18984375 9.58695312 -6 10 C-6.66 9.67 -7.32 9.34 -8 9 C-8 8.34 -8 7.68 -8 7 C-7.01 6.67 -6.02 6.34 -5 6 C-4.67 5.34 -4.34 4.68 -4 4 C-2.35 4 -0.7 4 1 4 C0.67 2.68 0.34 1.36 0 0 Z " fill="#8A9BF1" transform="translate(281,477)"/>
<path d="M0 0 C0.66 0.33 1.32 0.66 2 1 C1.67 2.32 1.34 3.64 1 5 C-2.65456815 5.75241109 -6.31733897 6.40049704 -10 7 C-6.81404865 4.36021174 -3.69029454 1.89501612 0 0 Z " fill="#8197F4" transform="translate(136,65)"/>
<path d="M0 0 C0.33 0 0.66 0 1 0 C1.28782489 3.05094381 1.44653726 5.96031862 1 9 C-1.375 11.125 -1.375 11.125 -4 12 C-4.66 11.67 -5.32 11.34 -6 11 C-5.47599609 10.18595703 -5.47599609 10.18595703 -4.94140625 9.35546875 C-4.25884766 8.28232422 -4.25884766 8.28232422 -3.5625 7.1875 C-3.11003906 6.47980469 -2.65757812 5.77210938 -2.19140625 5.04296875 C-0.85913661 2.91865448 -0.85913661 2.91865448 0 0 Z " fill="#8193F0" transform="translate(317,331)"/>
<path d="M0 0 C1.32 0 2.64 0 4 0 C4.268125 0.804375 4.53625 1.60875 4.8125 2.4375 C5.204375 3.283125 5.59625 4.12875 6 5 C6.99 5.33 7.98 5.66 9 6 C9 7.65 9 9.3 9 11 C8.443125 10.2575 7.88625 9.515 7.3125 8.75 C5.09173001 5.92455792 5.09173001 5.92455792 2.25 3.8125 C1.5075 3.214375 0.765 2.61625 0 2 C0 1.34 0 0.68 0 0 Z " fill="#8192EE" transform="translate(307,153)"/>
<path d="M0 0 C0.33 0.66 0.66 1.32 1 2 C2.98 1.67 4.96 1.34 7 1 C4.22719294 4.08089673 1.93673644 5.68775452 -2 7 C-1.34 4.69 -0.68 2.38 0 0 Z " fill="#798CF2" transform="translate(299,466)"/>
<path d="M0 0 C1.66842534 0.32441604 3.33480481 0.65939189 5 1 C6.051875 1.185625 6.051875 1.185625 7.125 1.375 C9.42058818 2.14019606 10.4974903 3.12186287 12 5 C12 5.66 12 6.32 12 7 C7.39104317 5.68315519 3.85859765 3.84801255 0 1 C0 0.67 0 0.34 0 0 Z " fill="#8A9CEF" transform="translate(135,433)"/>
<path d="M0 0 C2 1 2 1 2 1 Z M0 2 C0.33 3.65 0.66 5.3 1 7 C-2.45925163 5.7508258 -5.14693203 4.32472205 -8 2 C-4.71303767 1.20046862 -3.28976808 0.90341064 0 2 Z " fill="#768DF2" transform="translate(189,458)"/>
<path d="M0 0 C3.59391114 1.33488128 6.75490696 2.96022723 10 5 C6.94736336 5.98120464 5.05263664 5.98120464 2 5 C2 4.34 2 3.68 2 3 C1.01 2.67 0.02 2.34 -1 2 C-0.67 1.34 -0.34 0.68 0 0 Z " fill="#7E95EF" transform="translate(302,30)"/>
<path d="M0 0 C-0.33 1.65 -0.66 3.3 -1 5 C-3.64 5 -6.28 5 -9 5 C-2.87096774 0 -2.87096774 0 0 0 Z " fill="#7E92F2" transform="translate(61,110)"/>
<path d="M0 0 C0 0.66 0 1.32 0 2 C-0.99 2 -1.98 2 -3 2 C-3.185625 2.639375 -3.37125 3.27875 -3.5625 3.9375 C-5 6 -5 6 -8.625 6.75 C-9.73875 6.8325 -10.8525 6.915 -12 7 C-9.20232475 3.70861735 -4.40323273 0 0 0 Z " fill="#91A0EF" transform="translate(73,103)"/>
<path d="M0 0 C2.82631003 0.29750632 4.56696127 0.65655549 6.8125 2.4375 C8 4 8 4 8 6 C4.54074837 4.7508258 1.85306797 3.32472205 -1 1 C-0.67 0.67 -0.34 0.34 0 0 Z " fill="#7F91F0" transform="translate(46,380)"/>
<path d="M0 0 C-5.14285714 4.42857143 -5.14285714 4.42857143 -9 5 C-9 4.01 -9 3.02 -9 2 C-8.01 2 -7.02 2 -6 2 C-6 1.34 -6 0.68 -6 0 C-3.50907189 -1.24546405 -2.58919267 -0.7767578 0 0 Z " fill="#7F94EE" transform="translate(273,487)"/>
<path d="M0 0 C3.02419525 0.58803797 6.01758453 1.22678118 9 2 C9.33 3.32 9.66 4.64 10 6 C6.40992874 4.66654496 3.20429093 3.1056769 0 1 C0 0.67 0 0.34 0 0 Z " fill="#889DEF" transform="translate(166,451)"/>
<path d="M0 0 C0.66 0.33 1.32 0.66 2 1 C-0.08459518 4.12689277 -0.5796134 4.82986774 -4 6 C-6.69137604 6.15983268 -9.29899235 6.09003359 -12 6 C-12 5.67 -12 5.34 -12 5 C-11.07767578 4.70996094 -11.07767578 4.70996094 -10.13671875 4.4140625 C-9.32847656 4.15367187 -8.52023437 3.89328125 -7.6875 3.625 C-6.88699219 3.36976563 -6.08648437 3.11453125 -5.26171875 2.8515625 C-2.77275472 2.01168189 -2.77275472 2.01168189 0 0 Z " fill="#96A5EF" transform="translate(308,344)"/>
<path d="M0 0 C4.1666604 0.47348414 6.92884715 1.04696841 10 4 C10 4.66 10 5.32 10 6 C6.40992874 4.66654496 3.20429093 3.1056769 0 1 C0 0.67 0 0.34 0 0 Z " fill="#8D9DEF" transform="translate(209,476)"/>
<path d="M0 0 C3.3 1.98 6.6 3.96 10 6 C9.01 6.66 8.02 7.32 7 8 C7 7.34 7 6.68 7 6 C6.21625 5.938125 5.4325 5.87625 4.625 5.8125 C3.75875 5.544375 2.8925 5.27625 2 5 C1.34 3.35 0.68 1.7 0 0 Z " fill="#899FEE" transform="translate(187,341)"/>
<path d="M0 0 C0 0.33 0 0.66 0 1 C-5.445 2.485 -5.445 2.485 -11 4 C-11 3.01 -11 2.02 -11 1 C-7.2297564 -1.56376565 -4.32597804 -0.83191885 0 0 Z " fill="#879AF1" transform="translate(204,150)"/>
<path d="M0 0 C3.59391114 1.33488128 6.75490696 2.96022723 10 5 C9.34 5.66 8.68 6.32 8 7 C8 6.34 8 5.68 8 5 C6.35 5 4.7 5 3 5 C3 4.34 3 3.68 3 3 C2.01 2.67 1.02 2.34 0 2 C0 1.34 0 0.68 0 0 Z " fill="#8D9EEE" transform="translate(350,58)"/>
<path d="M0 0 C-1.47692308 4.67692308 -1.47692308 4.67692308 -4.125 6.3125 C-5.053125 6.6528125 -5.053125 6.6528125 -6 7 C-5.39816251 4.97954558 -4.72693904 2.97888961 -4 1 C-2 0 -2 0 0 0 Z " fill="#748CF4" transform="translate(243,4)"/>
<path d="M0 0 C-2.31 1.65 -4.62 3.3 -7 5 C-7.66 4.67 -8.32 4.34 -9 4 C-8.67 3.34 -8.34 2.68 -8 2 C-7.34 2 -6.68 2 -6 2 C-6 1.34 -6 0.68 -6 0 C-4 -1 -4 -1 0 0 Z " fill="#8298ED" transform="translate(263,493)"/>
<path d="M0 0 C2.31 0 4.62 0 7 0 C1.85714286 4.42857143 1.85714286 4.42857143 -2 5 C-2.33 4.34 -2.66 3.68 -3 3 C-2.01 3 -1.02 3 0 3 C0 2.01 0 1.02 0 0 Z " fill="#8197EC" transform="translate(290,473)"/>
<path d="M0 0 C3.37503669 1.1858237 5.64722731 2.27573689 8 5 C5.36 5 2.72 5 0 5 C0.33 4.34 0.66 3.68 1 3 C0.67 2.01 0.34 1.02 0 0 Z " fill="#8194F1" transform="translate(376,73)"/>
<path d="M0 0 C0.33 0.66 0.66 1.32 1 2 C0.01 2.33 -0.98 2.66 -2 3 C-2.66 3.66 -3.32 4.32 -4 5 C-4 4.34 -4 3.68 -4 3 C-5.32 2.67 -6.64 2.34 -8 2 C-4.77208445 -0.1519437 -3.71599191 -0.20086443 0 0 Z " fill="#758CF1" transform="translate(222,18)"/>
<path d="M0 0 C0 0.99 0 1.98 0 3 C-4.455 3.495 -4.455 3.495 -9 4 C-4.5 0 -4.5 0 0 0 Z " fill="#8598EC" transform="translate(252,0)"/>
<path d="M0 0 C2.64 0.33 5.28 0.66 8 1 C7.67 1.99 7.34 2.98 7 4 C4.97954558 3.39816251 2.97888961 2.72693904 1 2 C0.67 1.34 0.34 0.68 0 0 Z " fill="#8094F3" transform="translate(97,411)"/>
<path d="M0 0 C3.45925163 1.2491742 6.14693203 2.67527795 9 5 C8.34 5 7.68 5 7 5 C6.67 5.66 6.34 6.32 6 7 C6 6.34 6 5.68 6 5 C5.34 5 4.68 5 4 5 C4 4.34 4 3.68 4 3 C2.68 2.67 1.36 2.34 0 2 C0 1.34 0 0.68 0 0 Z " fill="#8EA1EC" transform="translate(326,44)"/>
<path d="M0 0 C3.77545388 1.09068668 6.47043472 1.9083091 9 5 C5.26512223 4.5020163 3.18762365 4.12508244 0 2 C0 1.34 0 0.68 0 0 Z " fill="#8B9CEF" transform="translate(360,64)"/>
<path d="M0 0 C0.7425 0.185625 1.485 0.37125 2.25 0.5625 C4.94990963 0.99203108 6.44631077 0.85122974 9 0 C8.34 1.32 7.68 2.64 7 4 C4.08482708 2.92598892 2.22189824 2.22189824 0 0 Z " fill="#8298F0" transform="translate(71,396)"/>
<path d="M0 0 C3.77545388 1.09068668 6.47043472 1.9083091 9 5 C8.01 5.33 7.02 5.66 6 6 C6 5.34 6 4.68 6 4 C4.35 3.67 2.7 3.34 1 3 C0.67 2.01 0.34 1.02 0 0 Z " fill="#8A9DED" transform="translate(262,7)"/>
<path d="M0 0 C1.32 0 2.64 0 4 0 C4 0.66 4 1.32 4 2 C1.625 3.6875 1.625 3.6875 -1 5 C-1.66 4.67 -2.32 4.34 -3 4 C-3 3.34 -3 2.68 -3 2 C-2.01 2 -1.02 2 0 2 C0 1.34 0 0.68 0 0 Z " fill="#899BEC" transform="translate(453,379)"/>
<path d="M0 0 C0.33 0.99 0.66 1.98 1 3 C-3.75 6 -3.75 6 -6 6 C-6 5.34 -6 4.68 -6 4 C-5.34 4 -4.68 4 -4 4 C-4 3.34 -4 2.68 -4 2 C-2.68 2 -1.36 2 0 2 C0 1.34 0 0.68 0 0 Z " fill="#8C9AE7" transform="translate(464,373)"/>
<path d="M0 0 C3.77545388 1.09068668 6.47043472 1.9083091 9 5 C5.26512223 4.5020163 3.18762365 4.12508244 0 2 C0 1.34 0 0.68 0 0 Z " fill="#8C9EED" transform="translate(384,78)"/>
<path d="M0 0 C-0.33 1.32 -0.66 2.64 -1 4 C-2.98 4 -4.96 4 -7 4 C-3.17391304 0 -3.17391304 0 0 0 Z " fill="#8D9EED" transform="translate(214,21)"/>
</svg>
